<svg xmlns="http://www.w3.org/2000/svg" xmlns:svg="http://www.w3.org/2000/svg" id="svg28" width="414" height="646" fill="none" version="1.1" viewBox="0 0 414 646"><path id="ellipse4" clip-path="none" style="fill:#d9d9d9;fill-opacity:.3" d="M 421,129.5 A 108,95.5 0 0 1 313,225 108,95.5 0 0 1 205,129.5 108,95.5 0 0 1 313,34 108,95.5 0 0 1 421,129.5 Z" mask="none"/><path id="ellipse6" clip-path="none" style="fill:#d9d9d9;fill-opacity:.3" d="M 205,13.5 A 108,95.5 0 0 1 97,109 108,95.5 0 0 1 -11,13.5 108,95.5 0 0 1 97,-82 108,95.5 0 0 1 205,13.5 Z" mask="none"/><path id="ellipse8" clip-path="none" style="fill:#d9d9d9;fill-opacity:.3" d="M 180,101.5 A 108,95.5 0 0 1 72,197 108,95.5 0 0 1 -36,101.5 108,95.5 0 0 1 72,6 108,95.5 0 0 1 180,101.5 Z" mask="none"/><path id="ellipse10" clip-path="none" style="fill:#d9d9d9;fill-opacity:.3" d="M 303,-9.5 A 108,95.5 0 0 1 195,86 108,95.5 0 0 1 87,-9.5 108,95.5 0 0 1 195,-105 108,95.5 0 0 1 303,-9.5 Z" mask="none"/><path id="ellipse12" clip-path="none" style="fill:#d9d9d9;fill-opacity:.3" d="M 421,37.5 A 108,95.5 0 0 1 313,133 108,95.5 0 0 1 205,37.5 108,95.5 0 0 1 313,-58 108,95.5 0 0 1 421,37.5 Z" mask="none"/><path id="ellipse14" clip-path="none" style="fill:#d9d9d9;fill-opacity:.3" d="M 288,74.5 A 108,95.5 0 0 1 180,170 108,95.5 0 0 1 72,74.5 108,95.5 0 0 1 180,-21 108,95.5 0 0 1 288,74.5 Z" mask="none"/><defs id="defs26"><linearGradient id="paint0_linear_1_48" x1="180" x2="180" y1="0" y2="646" gradientTransform="scale(1,1.0913313)" gradientUnits="userSpaceOnUse"><stop id="stop18" offset="0" stop-color="#828292" style="stop-color:#50505d;stop-opacity:1"/><stop id="stop20" offset="1" stop-color="#666674" style="stop-color:#a2a2af;stop-opacity:1"/></linearGradient><clipPath id="clipPath2464" clipPathUnits="userSpaceOnUse"><g id="g2468"><rect id="rect2466" width="360" height="646" x="0" y="0" fill="#fff"/></g></clipPath></defs></svg>