<?xml version="1.0" encoding="UTF-8" standalone="no"?>
<svg
   width="360"
   height="705"
   viewBox="0 0 360 705"
   fill="none"
   version="1.1"
   id="svg28"
   sodipodi:docname="cloudy.svg"
   inkscape:version="1.2.1 (9c6d41e410, 2022-07-14)"
   xmlns:inkscape="http://www.inkscape.org/namespaces/inkscape"
   xmlns:sodipodi="http://sodipodi.sourceforge.net/DTD/sodipodi-0.dtd"
   xmlns="http://www.w3.org/2000/svg"
   xmlns:svg="http://www.w3.org/2000/svg">
  <sodipodi:namedview
     id="namedview30"
     pagecolor="#ffffff"
     bordercolor="#000000"
     borderopacity="0.25"
     inkscape:showpageshadow="2"
     inkscape:pageopacity="0"
     inkscape:pagecheckerboard="0"
     inkscape:deskcolor="#d1d1d1"
     showgrid="false"
     inkscape:zoom="0.70710678"
     inkscape:cx="-44.547727"
     inkscape:cy="289.91378"
     inkscape:window-width="2560"
     inkscape:window-height="911"
     inkscape:window-x="0"
     inkscape:window-y="0"
     inkscape:window-maximized="1"
     inkscape:current-layer="svg28" />
  <path
     id="ellipse4"
     clip-path="none"
     style="fill:#d9d9d9;fill-opacity:0.30000001"
     d="M 421,129.5 A 108,95.5 0 0 1 313,225 108,95.5 0 0 1 205,129.5 108,95.5 0 0 1 313,34 108,95.5 0 0 1 421,129.5 Z"
     mask="none" />
  <path
     id="ellipse6"
     clip-path="none"
     style="fill:#d9d9d9;fill-opacity:0.30000001"
     d="M 205,13.5 A 108,95.5 0 0 1 97,109 108,95.5 0 0 1 -11,13.5 108,95.5 0 0 1 97,-82 108,95.5 0 0 1 205,13.5 Z"
     mask="none" />
  <path
     id="ellipse8"
     clip-path="none"
     style="fill:#d9d9d9;fill-opacity:0.30000001"
     d="M 180,101.5 A 108,95.5 0 0 1 72,197 108,95.5 0 0 1 -36,101.5 108,95.5 0 0 1 72,6 108,95.5 0 0 1 180,101.5 Z"
     mask="none" />
  <path
     id="ellipse10"
     clip-path="none"
     style="fill:#d9d9d9;fill-opacity:0.30000001"
     d="M 303,-9.5 A 108,95.5 0 0 1 195,86 108,95.5 0 0 1 87,-9.5 108,95.5 0 0 1 195,-105 108,95.5 0 0 1 303,-9.5 Z"
     mask="none" />
  <path
     id="ellipse12"
     clip-path="none"
     style="fill:#d9d9d9;fill-opacity:0.30000001"
     d="M 421,37.5 A 108,95.5 0 0 1 313,133 108,95.5 0 0 1 205,37.5 108,95.5 0 0 1 313,-58 108,95.5 0 0 1 421,37.5 Z"
     mask="none" />
  <path
     id="ellipse14"
     clip-path="none"
     style="fill:#d9d9d9;fill-opacity:0.30000001"
     d="M 288,74.5 A 108,95.5 0 0 1 180,170 108,95.5 0 0 1 72,74.5 108,95.5 0 0 1 180,-21 108,95.5 0 0 1 288,74.5 Z"
     mask="none" />
  <defs
     id="defs26">
    <linearGradient
       id="paint0_linear_1_48"
       x1="180"
       y1="0"
       x2="180"
       y2="646"
       gradientUnits="userSpaceOnUse"
       gradientTransform="scale(1,1.0913313)">
      <stop
         stop-color="#828292"
         id="stop18"
         offset="0"
         style="stop-color:#50505d;stop-opacity:1;" />
      <stop
         offset="1"
         stop-color="#666674"
         id="stop20"
         style="stop-color:#a2a2af;stop-opacity:1;" />
    </linearGradient>
    <clipPath
       clipPathUnits="userSpaceOnUse"
       id="clipPath2464">
      <g
         id="g2468">
        <rect
           width="360"
           height="646"
           fill="#ffffff"
           id="rect2466"
           x="0"
           y="0" />
      </g>
    </clipPath>
  </defs>
</svg>
