<svg xmlns="http://www.w3.org/2000/svg" xmlns:svg="http://www.w3.org/2000/svg" id="svg38" width="414" height="646" fill="none" version="1.1" viewBox="0 0 414 646"><rect id="rect16" width="4.032" height="4.032" x="-282.229" y="97.073" fill="#fee8af" fill-opacity=".1" clip-path="none" mask="none" transform="matrix(-0.84549112,-0.53398949,-0.58710208,0.80951291,0,0)" style="fill:#fff;fill-opacity:.10000003;stroke-width:.36655"/><rect id="rect18" width="4.032" height="4.032" x="-301.669" y="101.624" fill="#fee8af" fill-opacity=".1" clip-path="none" mask="none" transform="matrix(-0.84549112,-0.53398949,-0.58710208,0.80951291,0,0)" style="fill:#fff;fill-opacity:.10000003;stroke-width:.36655"/><rect id="rect20" width="4.032" height="4.032" x="-287.932" y="119.508" fill="#fee8af" fill-opacity=".1" clip-path="none" mask="none" transform="matrix(-0.84549112,-0.53398949,-0.58710208,0.80951291,0,0)" style="fill:#fff;fill-opacity:.10000003;stroke-width:.36655"/><rect id="rect22" width="4.032" height="4.032" x="-302.965" y="122.1" fill="#fee8af" fill-opacity=".1" clip-path="none" mask="none" transform="matrix(-0.84549112,-0.53398949,-0.58710208,0.80951291,0,0)" style="fill:#fff;fill-opacity:.10000003;stroke-width:.36655"/><rect id="rect24" width="4.032" height="4.032" x="-381.995" y="31.397" fill="#fee8af" fill-opacity=".1" clip-path="none" mask="none" transform="matrix(-0.72942382,-0.68406206,-0.72942382,0.68406206,0,0)" style="fill:#fff;fill-opacity:.1;stroke-width:.36655"/><rect id="rect16-3" width="4.032" height="4.032" x="-285.983" y="-4.679" fill="#fee8af" fill-opacity=".1" clip-path="none" mask="none" transform="matrix(-0.72942382,-0.68406206,-0.72942382,0.68406206,0,0)" style="fill:#fff;fill-opacity:.10000003;stroke-width:.36655"/><rect id="rect18-6" width="4.032" height="4.032" x="-305.422" y="-.129" fill="#fee8af" fill-opacity=".1" clip-path="none" mask="none" transform="matrix(-0.72942382,-0.68406206,-0.72942382,0.68406206,0,0)" style="fill:#fff;fill-opacity:.10000003;stroke-width:.36655"/><rect id="rect20-7" width="4.032" height="4.032" x="-274.528" y="76.144" fill="#fee8af" fill-opacity=".1" clip-path="none" mask="none" transform="matrix(-0.84549112,-0.53398949,-0.58710208,0.80951291,0,0)" style="fill:#fff;fill-opacity:.10000003;stroke-width:.36655"/><rect id="rect22-5" width="4.032" height="4.032" x="-306.718" y="20.347" fill="#fee8af" fill-opacity=".1" clip-path="none" mask="none" transform="matrix(-0.72942382,-0.68406206,-0.72942382,0.68406206,0,0)" style="fill:#fff;fill-opacity:.10000003;stroke-width:.36655"/><rect id="rect24-3" width="4.032" height="4.032" x="-327.972" y="22.421" fill="#fee8af" fill-opacity=".1" clip-path="none" mask="none" transform="matrix(-0.72942382,-0.68406206,-0.72942382,0.68406206,0,0)" style="fill:#fff;fill-opacity:.10000003;stroke-width:.36655"/><rect id="rect16-5" width="4.032" height="4.032" x="-345.954" y="-4.904" fill="#fee8af" fill-opacity=".1" clip-path="none" mask="none" transform="matrix(-0.72942382,-0.68406206,-0.72942382,0.68406206,0,0)" style="fill:#fff;fill-opacity:.10000003;stroke-width:.36655"/><rect id="rect18-62" width="4.032" height="4.032" x="-365.393" y="-.354" fill="#fee8af" fill-opacity=".1" clip-path="none" mask="none" transform="matrix(-0.72942382,-0.68406206,-0.72942382,0.68406206,0,0)" style="fill:#fff;fill-opacity:.10000003;stroke-width:.36655"/><rect id="rect20-9" width="4.032" height="4.032" x="-351.656" y="17.531" fill="#fee8af" fill-opacity=".1" clip-path="none" mask="none" transform="matrix(-0.72942382,-0.68406206,-0.72942382,0.68406206,0,0)" style="fill:#fff;fill-opacity:.10000003;stroke-width:.36655"/><rect id="rect22-1" width="4.032" height="4.032" x="-418.213" y="-37.491" fill="#fee8af" fill-opacity=".1" clip-path="none" mask="none" transform="matrix(-0.72942382,-0.68406206,-0.72942382,0.68406206,0,0)" style="fill:#fff;fill-opacity:.1;stroke-width:.36655"/><rect id="rect24-2" width="4.032" height="4.032" x="-439.466" y="-35.417" fill="#fee8af" fill-opacity=".1" clip-path="none" mask="none" transform="matrix(-0.72942382,-0.68406206,-0.72942382,0.68406206,0,0)" style="fill:#fff;fill-opacity:.1;stroke-width:.36655"/><rect id="rect16-7" width="4.032" height="4.032" x="-398.791" y="47.933" fill="#fee8af" fill-opacity=".1" clip-path="none" mask="none" transform="matrix(-0.72942382,-0.68406206,-0.72942382,0.68406206,0,0)" style="fill:#fff;fill-opacity:.1;stroke-width:.36655"/><rect id="rect18-0" width="4.032" height="4.032" x="-418.23" y="52.483" fill="#fee8af" fill-opacity=".1" clip-path="none" mask="none" transform="matrix(-0.72942382,-0.68406206,-0.72942382,0.68406206,0,0)" style="fill:#fff;fill-opacity:.1;stroke-width:.36655"/><rect id="rect20-93" width="4.032" height="4.032" x="-404.493" y="70.368" fill="#fee8af" fill-opacity=".1" clip-path="none" mask="none" transform="matrix(-0.72942382,-0.68406206,-0.72942382,0.68406206,0,0)" style="fill:#fff;fill-opacity:.1;stroke-width:.36655"/><rect id="rect22-6" width="4.032" height="4.032" x="-419.526" y="72.96" fill="#fee8af" fill-opacity=".1" clip-path="none" mask="none" transform="matrix(-0.72942382,-0.68406206,-0.72942382,0.68406206,0,0)" style="fill:#fff;fill-opacity:.1;stroke-width:.36655"/><rect id="rect24-0" width="4.032" height="4.032" x="-440.78" y="75.033" fill="#fee8af" fill-opacity=".1" clip-path="none" mask="none" transform="matrix(-0.72942382,-0.68406206,-0.72942382,0.68406206,0,0)" style="fill:#fff;fill-opacity:.1;stroke-width:.36655"/><rect id="rect16-3-6" width="4.032" height="4.032" x="-396.291" y="-18.656" fill="#fee8af" fill-opacity=".1" clip-path="none" mask="none" transform="matrix(-0.72942382,-0.68406206,-0.72942382,0.68406206,0,0)" style="fill:#fff;fill-opacity:.1;stroke-width:.36655"/><rect id="rect18-6-2" width="4.032" height="4.032" x="-415.73" y="-14.106" fill="#fee8af" fill-opacity=".1" clip-path="none" mask="none" transform="matrix(-0.72942382,-0.68406206,-0.72942382,0.68406206,0,0)" style="fill:#fff;fill-opacity:.1;stroke-width:.36655"/><rect id="rect20-7-6" width="4.032" height="4.032" x="-401.993" y="3.779" fill="#fee8af" fill-opacity=".1" clip-path="none" mask="none" transform="matrix(-0.72942382,-0.68406206,-0.72942382,0.68406206,0,0)" style="fill:#fff;fill-opacity:.1;stroke-width:.36655"/><rect id="rect22-5-1" width="4.032" height="4.032" x="-417.026" y="6.371" fill="#fee8af" fill-opacity=".1" clip-path="none" mask="none" transform="matrix(-0.72942382,-0.68406206,-0.72942382,0.68406206,0,0)" style="fill:#fff;fill-opacity:.1;stroke-width:.36655"/><rect id="rect24-3-8" width="4.032" height="4.032" x="-438.28" y="8.444" fill="#fee8af" fill-opacity=".1" clip-path="none" mask="none" transform="matrix(-0.72942382,-0.68406206,-0.72942382,0.68406206,0,0)" style="fill:#fff;fill-opacity:.1;stroke-width:.36655"/><rect id="rect16-5-7" width="4.032" height="4.032" x="-452.427" y="-61.084" fill="#fee8af" fill-opacity=".1" clip-path="none" mask="none" transform="matrix(-0.72942382,-0.68406206,-0.72942382,0.68406206,0,0)" style="fill:#fff;fill-opacity:.1;stroke-width:.36655"/><rect id="rect18-62-9" width="4.032" height="4.032" x="-471.866" y="-56.534" fill="#fee8af" fill-opacity=".1" clip-path="none" mask="none" transform="matrix(-0.72942382,-0.68406206,-0.72942382,0.68406206,0,0)" style="fill:#fff;fill-opacity:.1;stroke-width:.36655"/><rect id="rect20-9-2" width="4.032" height="4.032" x="-458.13" y="-38.649" fill="#fee8af" fill-opacity=".1" clip-path="none" mask="none" transform="matrix(-0.72942382,-0.68406206,-0.72942382,0.68406206,0,0)" style="fill:#fff;fill-opacity:.1;stroke-width:.36655"/><rect id="rect22-1-0" width="4.032" height="4.032" x="-473.163" y="-36.058" fill="#fee8af" fill-opacity=".1" clip-path="none" mask="none" transform="matrix(-0.72942382,-0.68406206,-0.72942382,0.68406206,0,0)" style="fill:#fff;fill-opacity:.1;stroke-width:.36655"/><rect id="rect24-2-2" width="4.032" height="4.032" x="-494.416" y="-33.984" fill="#fee8af" fill-opacity=".1" clip-path="none" mask="none" transform="matrix(-0.72942382,-0.68406206,-0.72942382,0.68406206,0,0)" style="fill:#fff;fill-opacity:.1;stroke-width:.36655"/><rect id="rect16-37" width="4.032" height="4.032" x="-271.783" y="-87.139" fill="#fee8af" fill-opacity=".1" clip-path="none" mask="none" transform="matrix(-0.72942382,-0.68406206,-0.72942382,0.68406206,0,0)" style="fill:#fff;fill-opacity:.10000003;stroke-width:.36655"/><rect id="rect18-5" width="4.032" height="4.032" x="-291.222" y="-82.589" fill="#fee8af" fill-opacity=".1" clip-path="none" mask="none" transform="matrix(-0.72942382,-0.68406206,-0.72942382,0.68406206,0,0)" style="fill:#fff;fill-opacity:.10000003;stroke-width:.36655"/><rect id="rect20-92" width="4.032" height="4.032" x="-277.485" y="-64.705" fill="#fee8af" fill-opacity=".1" clip-path="none" mask="none" transform="matrix(-0.72942382,-0.68406206,-0.72942382,0.68406206,0,0)" style="fill:#fff;fill-opacity:.10000003;stroke-width:.36655"/><rect id="rect22-2" width="4.032" height="4.032" x="-292.518" y="-62.113" fill="#fee8af" fill-opacity=".1" clip-path="none" mask="none" transform="matrix(-0.72942382,-0.68406206,-0.72942382,0.68406206,0,0)" style="fill:#fff;fill-opacity:.10000003;stroke-width:.36655"/><rect id="rect24-8" width="4.032" height="4.032" x="-313.772" y="-60.039" fill="#fee8af" fill-opacity=".1" clip-path="none" mask="none" transform="matrix(-0.72942382,-0.68406206,-0.72942382,0.68406206,0,0)" style="fill:#fff;fill-opacity:.10000003;stroke-width:.36655"/><rect id="rect16-3-9" width="4.032" height="4.032" x="-269.283" y="-153.728" fill="#fee8af" fill-opacity=".1" clip-path="none" mask="none" transform="matrix(-0.72942382,-0.68406206,-0.72942382,0.68406206,0,0)" style="fill:#fff;fill-opacity:.10000003;stroke-width:.36655"/><rect id="rect18-6-7" width="4.032" height="4.032" x="-288.722" y="-149.178" fill="#fee8af" fill-opacity=".1" clip-path="none" mask="none" transform="matrix(-0.72942382,-0.68406206,-0.72942382,0.68406206,0,0)" style="fill:#fff;fill-opacity:.10000003;stroke-width:.36655"/><rect id="rect20-7-3" width="4.032" height="4.032" x="-274.985" y="-131.294" fill="#fee8af" fill-opacity=".1" clip-path="none" mask="none" transform="matrix(-0.72942382,-0.68406206,-0.72942382,0.68406206,0,0)" style="fill:#fff;fill-opacity:.10000003;stroke-width:.36655"/><rect id="rect22-5-6" width="4.032" height="4.032" x="-290.018" y="-128.702" fill="#fee8af" fill-opacity=".1" clip-path="none" mask="none" transform="matrix(-0.72942382,-0.68406206,-0.72942382,0.68406206,0,0)" style="fill:#fff;fill-opacity:.10000003;stroke-width:.36655"/><rect id="rect24-3-1" width="4.032" height="4.032" x="-311.271" y="-126.628" fill="#fee8af" fill-opacity=".1" clip-path="none" mask="none" transform="matrix(-0.72942382,-0.68406206,-0.72942382,0.68406206,0,0)" style="fill:#fff;fill-opacity:.10000003;stroke-width:.36655"/><rect id="rect16-5-2" width="4.032" height="4.032" x="-329.254" y="-153.953" fill="#fee8af" fill-opacity=".1" clip-path="none" mask="none" transform="matrix(-0.72942382,-0.68406206,-0.72942382,0.68406206,0,0)" style="fill:#fff;fill-opacity:.10000003;stroke-width:.36655"/><rect id="rect18-62-93" width="4.032" height="4.032" x="-348.693" y="-149.403" fill="#fee8af" fill-opacity=".1" clip-path="none" mask="none" transform="matrix(-0.72942382,-0.68406206,-0.72942382,0.68406206,0,0)" style="fill:#fff;fill-opacity:.10000003;stroke-width:.36655"/><rect id="rect20-9-1" width="4.032" height="4.032" x="-334.956" y="-131.518" fill="#fee8af" fill-opacity=".1" clip-path="none" mask="none" transform="matrix(-0.72942382,-0.68406206,-0.72942382,0.68406206,0,0)" style="fill:#fff;fill-opacity:.10000003;stroke-width:.36655"/><rect id="rect22-1-9" width="4.032" height="4.032" x="-349.989" y="-128.927" fill="#fee8af" fill-opacity=".1" clip-path="none" mask="none" transform="matrix(-0.72942382,-0.68406206,-0.72942382,0.68406206,0,0)" style="fill:#fff;fill-opacity:.10000003;stroke-width:.36655"/><rect id="rect24-2-4" width="4.032" height="4.032" x="-371.243" y="-126.853" fill="#fee8af" fill-opacity=".1" clip-path="none" mask="none" transform="matrix(-0.72942382,-0.68406206,-0.72942382,0.68406206,0,0)" style="fill:#fff;fill-opacity:.10000003;stroke-width:.36655"/><rect id="rect16-7-7" width="4.032" height="4.032" x="-330.567" y="-43.503" fill="#fee8af" fill-opacity=".1" clip-path="none" mask="none" transform="matrix(-0.72942382,-0.68406206,-0.72942382,0.68406206,0,0)" style="fill:#fff;fill-opacity:.10000003;stroke-width:.36655"/><rect id="rect18-0-8" width="4.032" height="4.032" x="-350.006" y="-38.952" fill="#fee8af" fill-opacity=".1" clip-path="none" mask="none" transform="matrix(-0.72942382,-0.68406206,-0.72942382,0.68406206,0,0)" style="fill:#fff;fill-opacity:.10000003;stroke-width:.36655"/><rect id="rect20-93-4" width="4.032" height="4.032" x="-336.27" y="-21.068" fill="#fee8af" fill-opacity=".1" clip-path="none" mask="none" transform="matrix(-0.72942382,-0.68406206,-0.72942382,0.68406206,0,0)" style="fill:#fff;fill-opacity:.10000003;stroke-width:.36655"/><rect id="rect22-6-5" width="4.032" height="4.032" x="-351.303" y="-18.476" fill="#fee8af" fill-opacity=".1" clip-path="none" mask="none" transform="matrix(-0.72942382,-0.68406206,-0.72942382,0.68406206,0,0)" style="fill:#fff;fill-opacity:.10000003;stroke-width:.36655"/><rect id="rect24-0-0" width="4.032" height="4.032" x="-372.556" y="-16.403" fill="#fee8af" fill-opacity=".1" clip-path="none" mask="none" transform="matrix(-0.72942382,-0.68406206,-0.72942382,0.68406206,0,0)" style="fill:#fff;fill-opacity:.10000003;stroke-width:.36655"/><rect id="rect16-3-6-3" width="4.032" height="4.032" x="-328.067" y="-110.092" fill="#fee8af" fill-opacity=".1" clip-path="none" mask="none" transform="matrix(-0.72942382,-0.68406206,-0.72942382,0.68406206,0,0)" style="fill:#fff;fill-opacity:.10000003;stroke-width:.36655"/><rect id="rect18-6-2-6" width="4.032" height="4.032" x="-347.506" y="-105.541" fill="#fee8af" fill-opacity=".1" clip-path="none" mask="none" transform="matrix(-0.72942382,-0.68406206,-0.72942382,0.68406206,0,0)" style="fill:#fff;fill-opacity:.10000003;stroke-width:.36655"/><rect id="rect20-7-6-1" width="4.032" height="4.032" x="-333.77" y="-87.657" fill="#fee8af" fill-opacity=".1" clip-path="none" mask="none" transform="matrix(-0.72942382,-0.68406206,-0.72942382,0.68406206,0,0)" style="fill:#fff;fill-opacity:.10000003;stroke-width:.36655"/><rect id="rect22-5-1-0" width="4.032" height="4.032" x="-348.802" y="-85.065" fill="#fee8af" fill-opacity=".1" clip-path="none" mask="none" transform="matrix(-0.72942382,-0.68406206,-0.72942382,0.68406206,0,0)" style="fill:#fff;fill-opacity:.10000003;stroke-width:.36655"/><rect id="rect24-3-8-6" width="4.032" height="4.032" x="-370.056" y="-82.992" fill="#fee8af" fill-opacity=".1" clip-path="none" mask="none" transform="matrix(-0.72942382,-0.68406206,-0.72942382,0.68406206,0,0)" style="fill:#fff;fill-opacity:.10000003;stroke-width:.36655"/><rect id="rect16-5-7-3" width="4.032" height="4.032" x="-388.038" y="-110.316" fill="#fee8af" fill-opacity=".1" clip-path="none" mask="none" transform="matrix(-0.72942382,-0.68406206,-0.72942382,0.68406206,0,0)" style="fill:#fff;fill-opacity:.10000003;stroke-width:.36655"/><rect id="rect18-62-9-2" width="4.032" height="4.032" x="-407.478" y="-105.766" fill="#fee8af" fill-opacity=".1" clip-path="none" mask="none" transform="matrix(-0.72942382,-0.68406206,-0.72942382,0.68406206,0,0)" style="fill:#fff;fill-opacity:.10000003;stroke-width:.36655"/><rect id="rect20-9-2-0" width="4.032" height="4.032" x="-393.741" y="-87.882" fill="#fee8af" fill-opacity=".1" clip-path="none" mask="none" transform="matrix(-0.72942382,-0.68406206,-0.72942382,0.68406206,0,0)" style="fill:#fff;fill-opacity:.10000003;stroke-width:.36655"/><rect id="rect22-1-0-6" width="4.032" height="4.032" x="-408.774" y="-85.29" fill="#fee8af" fill-opacity=".1" clip-path="none" mask="none" transform="matrix(-0.72942382,-0.68406206,-0.72942382,0.68406206,0,0)" style="fill:#fff;fill-opacity:.10000003;stroke-width:.36655"/><rect id="rect24-2-2-1" width="4.032" height="4.032" x="-430.027" y="-83.216" fill="#fee8af" fill-opacity=".1" clip-path="none" mask="none" transform="matrix(-0.72942382,-0.68406206,-0.72942382,0.68406206,0,0)" style="fill:#fff;fill-opacity:.10000003;stroke-width:.36655"/><rect id="rect16-55" width="4.032" height="4.032" x="-127.414" y="1.575" fill="#fee8af" fill-opacity=".1" clip-path="none" mask="none" transform="matrix(-0.84549112,-0.53398949,-0.58710208,0.80951291,0,0)" style="fill:#fff;fill-opacity:.1;stroke-width:.36655"/><rect id="rect18-4" width="4.032" height="4.032" x="-146.853" y="6.125" fill="#fee8af" fill-opacity=".1" clip-path="none" mask="none" transform="matrix(-0.84549112,-0.53398949,-0.58710208,0.80951291,0,0)" style="fill:#fff;fill-opacity:.1;stroke-width:.36655"/><rect id="rect20-76" width="4.032" height="4.032" x="-133.117" y="24.009" fill="#fee8af" fill-opacity=".1" clip-path="none" mask="none" transform="matrix(-0.84549112,-0.53398949,-0.58710208,0.80951291,0,0)" style="fill:#fff;fill-opacity:.1;stroke-width:.36655"/><rect id="rect22-56" width="4.032" height="4.032" x="-148.149" y="26.601" fill="#fee8af" fill-opacity=".1" clip-path="none" mask="none" transform="matrix(-0.84549112,-0.53398949,-0.58710208,0.80951291,0,0)" style="fill:#fff;fill-opacity:.1;stroke-width:.36655"/><rect id="rect24-9" width="4.032" height="4.032" x="-169.403" y="28.675" fill="#fee8af" fill-opacity=".1" clip-path="none" mask="none" transform="matrix(-0.84549112,-0.53398949,-0.58710208,0.80951291,0,0)" style="fill:#fff;fill-opacity:.1;stroke-width:.36655"/><rect id="rect16-3-3" width="4.032" height="4.032" x="-124.914" y="-65.014" fill="#fee8af" fill-opacity=".1" clip-path="none" mask="none" transform="matrix(-0.84549112,-0.53398949,-0.58710208,0.80951291,0,0)" style="fill:#fff;fill-opacity:.1;stroke-width:.36655"/><rect id="rect18-6-74" width="4.032" height="4.032" x="-144.353" y="-60.464" fill="#fee8af" fill-opacity=".1" clip-path="none" mask="none" transform="matrix(-0.84549112,-0.53398949,-0.58710208,0.80951291,0,0)" style="fill:#fff;fill-opacity:.1;stroke-width:.36655"/><rect id="rect20-7-5" width="4.032" height="4.032" x="-130.616" y="-42.58" fill="#fee8af" fill-opacity=".1" clip-path="none" mask="none" transform="matrix(-0.84549112,-0.53398949,-0.58710208,0.80951291,0,0)" style="fill:#fff;fill-opacity:.1;stroke-width:.36655"/><rect id="rect22-5-2" width="4.032" height="4.032" x="-145.649" y="-39.988" fill="#fee8af" fill-opacity=".1" clip-path="none" mask="none" transform="matrix(-0.84549112,-0.53398949,-0.58710208,0.80951291,0,0)" style="fill:#fff;fill-opacity:.1;stroke-width:.36655"/><rect id="rect24-3-5" width="4.032" height="4.032" x="-166.903" y="-37.914" fill="#fee8af" fill-opacity=".1" clip-path="none" mask="none" transform="matrix(-0.84549112,-0.53398949,-0.58710208,0.80951291,0,0)" style="fill:#fff;fill-opacity:.1;stroke-width:.36655"/><rect id="rect16-5-4" width="4.032" height="4.032" x="-184.885" y="-65.239" fill="#fee8af" fill-opacity=".1" clip-path="none" mask="none" transform="matrix(-0.84549112,-0.53398949,-0.58710208,0.80951291,0,0)" style="fill:#fff;fill-opacity:.1;stroke-width:.36655"/><rect id="rect18-62-7" width="4.032" height="4.032" x="-204.324" y="-60.689" fill="#fee8af" fill-opacity=".1" clip-path="none" mask="none" transform="matrix(-0.84549112,-0.53398949,-0.58710208,0.80951291,0,0)" style="fill:#fff;fill-opacity:.1;stroke-width:.36655"/><rect id="rect20-9-4" width="4.032" height="4.032" x="-190.588" y="-42.804" fill="#fee8af" fill-opacity=".1" clip-path="none" mask="none" transform="matrix(-0.84549112,-0.53398949,-0.58710208,0.80951291,0,0)" style="fill:#fff;fill-opacity:.1;stroke-width:.36655"/><rect id="rect22-1-4" width="4.032" height="4.032" x="-205.62" y="-40.213" fill="#fee8af" fill-opacity=".1" clip-path="none" mask="none" transform="matrix(-0.84549112,-0.53398949,-0.58710208,0.80951291,0,0)" style="fill:#fff;fill-opacity:.1;stroke-width:.36655"/><rect id="rect24-2-3" width="4.032" height="4.032" x="-226.874" y="-38.139" fill="#fee8af" fill-opacity=".1" clip-path="none" mask="none" transform="matrix(-0.84549112,-0.53398949,-0.58710208,0.80951291,0,0)" style="fill:#fff;fill-opacity:.1;stroke-width:.36655"/><rect id="rect16-7-0" width="4.032" height="4.032" x="-186.199" y="45.211" fill="#fee8af" fill-opacity=".1" clip-path="none" mask="none" transform="matrix(-0.84549112,-0.53398949,-0.58710208,0.80951291,0,0)" style="fill:#fff;fill-opacity:.1;stroke-width:.36655"/><rect id="rect18-0-7" width="4.032" height="4.032" x="-205.638" y="49.762" fill="#fee8af" fill-opacity=".1" clip-path="none" mask="none" transform="matrix(-0.84549112,-0.53398949,-0.58710208,0.80951291,0,0)" style="fill:#fff;fill-opacity:.1;stroke-width:.36655"/><rect id="rect20-93-8" width="4.032" height="4.032" x="-191.901" y="67.646" fill="#fee8af" fill-opacity=".1" clip-path="none" mask="none" transform="matrix(-0.84549112,-0.53398949,-0.58710208,0.80951291,0,0)" style="fill:#fff;fill-opacity:.1;stroke-width:.36655"/><rect id="rect22-6-6" width="4.032" height="4.032" x="-225.965" y="92.085" fill="#fee8af" fill-opacity=".1" clip-path="none" mask="none" transform="matrix(-0.84549112,-0.53398949,-0.58710208,0.80951291,0,0)" style="fill:#fff;fill-opacity:.1;stroke-width:.36655"/><rect id="rect24-0-8" width="4.032" height="4.032" x="-247.218" y="94.158" fill="#fee8af" fill-opacity=".1" clip-path="none" mask="none" transform="matrix(-0.84549112,-0.53398949,-0.58710208,0.80951291,0,0)" style="fill:#fff;fill-opacity:.1;stroke-width:.36655"/><rect id="rect16-3-6-8" width="4.032" height="4.032" x="-183.699" y="-21.378" fill="#fee8af" fill-opacity=".1" clip-path="none" mask="none" transform="matrix(-0.84549112,-0.53398949,-0.58710208,0.80951291,0,0)" style="fill:#fff;fill-opacity:.1;stroke-width:.36655"/><rect id="rect18-6-2-4" width="4.032" height="4.032" x="-203.138" y="-16.827" fill="#fee8af" fill-opacity=".1" clip-path="none" mask="none" transform="matrix(-0.84549112,-0.53398949,-0.58710208,0.80951291,0,0)" style="fill:#fff;fill-opacity:.1;stroke-width:.36655"/><rect id="rect20-7-6-3" width="4.032" height="4.032" x="-189.401" y="1.057" fill="#fee8af" fill-opacity=".1" clip-path="none" mask="none" transform="matrix(-0.84549112,-0.53398949,-0.58710208,0.80951291,0,0)" style="fill:#fff;fill-opacity:.1;stroke-width:.36655"/><rect id="rect22-5-1-1" width="4.032" height="4.032" x="-204.434" y="3.649" fill="#fee8af" fill-opacity=".1" clip-path="none" mask="none" transform="matrix(-0.84549112,-0.53398949,-0.58710208,0.80951291,0,0)" style="fill:#fff;fill-opacity:.1;stroke-width:.36655"/><rect id="rect24-3-8-4" width="4.032" height="4.032" x="-225.688" y="5.722" fill="#fee8af" fill-opacity=".1" clip-path="none" mask="none" transform="matrix(-0.84549112,-0.53398949,-0.58710208,0.80951291,0,0)" style="fill:#fff;fill-opacity:.1;stroke-width:.36655"/><rect id="rect16-5-7-9" width="4.032" height="4.032" x="-243.67" y="-21.603" fill="#fee8af" fill-opacity=".1" clip-path="none" mask="none" transform="matrix(-0.84549112,-0.53398949,-0.58710208,0.80951291,0,0)" style="fill:#fff;fill-opacity:.1;stroke-width:.36655"/><rect id="rect18-62-9-20" width="4.032" height="4.032" x="-263.109" y="-17.052" fill="#fee8af" fill-opacity=".1" clip-path="none" mask="none" transform="matrix(-0.84549112,-0.53398949,-0.58710208,0.80951291,0,0)" style="fill:#fff;fill-opacity:.1;stroke-width:.36655"/><rect id="rect20-9-2-6" width="4.032" height="4.032" x="-249.372" y=".832" fill="#fee8af" fill-opacity=".1" clip-path="none" mask="none" transform="matrix(-0.84549112,-0.53398949,-0.58710208,0.80951291,0,0)" style="fill:#fff;fill-opacity:.1;stroke-width:.36655"/><rect id="rect22-1-0-8" width="4.032" height="4.032" x="-264.405" y="3.424" fill="#fee8af" fill-opacity=".1" clip-path="none" mask="none" transform="matrix(-0.84549112,-0.53398949,-0.58710208,0.80951291,0,0)" style="fill:#fff;fill-opacity:.1;stroke-width:.36655"/><rect id="rect24-2-2-9" width="4.032" height="4.032" x="-285.659" y="5.498" fill="#fee8af" fill-opacity=".1" clip-path="none" mask="none" transform="matrix(-0.84549112,-0.53398949,-0.58710208,0.80951291,0,0)" style="fill:#fff;fill-opacity:.1;stroke-width:.36655"/><defs id="defs36"><linearGradient id="paint0_linear_2_2" x1="180" x2="180" y1="0" y2="646" gradientUnits="userSpaceOnUse"><stop id="stop28" stop-color="#22262B"/><stop id="stop30" offset="1" stop-color="#3B3449"/></linearGradient><clipPath id="clipPath405" clipPathUnits="userSpaceOnUse"><g id="g409"><rect id="rect407" width="360" height="646" x="0" y="0" fill="#fff"/></g></clipPath></defs></svg>