<?xml version="1.0" encoding="UTF-8" standalone="no"?>
<svg
   id="svg38"
   width="414"
   height="646"
   fill="none"
   version="1.1"
   viewBox="0 0 414 646"
   sodipodi:docname="night.svg"
   inkscape:version="1.2.2 (b0a8486541, 2022-12-01)"
   xmlns:inkscape="http://www.inkscape.org/namespaces/inkscape"
   xmlns:sodipodi="http://sodipodi.sourceforge.net/DTD/sodipodi-0.dtd"
   xmlns="http://www.w3.org/2000/svg"
   xmlns:svg="http://www.w3.org/2000/svg">
  <sodipodi:namedview
     id="namedview21"
     pagecolor="#ffffff"
     bordercolor="#000000"
     borderopacity="0.25"
     inkscape:showpageshadow="2"
     inkscape:pageopacity="0.0"
     inkscape:pagecheckerboard="0"
     inkscape:deskcolor="#d1d1d1"
     showgrid="false"
     inkscape:zoom="1.2105263"
     inkscape:cx="210.23913"
     inkscape:cy="249.47826"
     inkscape:window-width="2560"
     inkscape:window-height="927"
     inkscape:window-x="0"
     inkscape:window-y="0"
     inkscape:window-maximized="1"
     inkscape:current-layer="svg38" />
  <rect
     id="rect16"
     width="4.0320454"
     height="4.0320454"
     x="-282.22946"
     y="97.073166"
     fill="#fee8af"
     fill-opacity=".1"
     clip-path="none"
     mask="none"
     transform="matrix(-0.84549112,-0.53398949,-0.58710208,0.80951291,0,0)"
     style="fill:#ffffff;fill-opacity:0.10000003;stroke-width:0.36655" />
  <rect
     id="rect18"
     width="4.0320454"
     height="4.0320454"
     x="-301.66864"
     y="101.62351"
     fill="#fee8af"
     fill-opacity=".1"
     clip-path="none"
     mask="none"
     transform="matrix(-0.84549112,-0.53398949,-0.58710208,0.80951291,0,0)"
     style="fill:#ffffff;fill-opacity:0.10000003;stroke-width:0.36655" />
  <rect
     id="rect20"
     width="4.0320454"
     height="4.0320454"
     x="-287.93185"
     y="119.50784"
     fill="#fee8af"
     fill-opacity=".1"
     clip-path="none"
     mask="none"
     transform="matrix(-0.84549112,-0.53398949,-0.58710208,0.80951291,0,0)"
     style="fill:#ffffff;fill-opacity:0.10000003;stroke-width:0.36655" />
  <rect
     id="rect22"
     width="4.0320454"
     height="4.0320454"
     x="-302.96478"
     y="122.0997"
     fill="#fee8af"
     fill-opacity=".1"
     clip-path="none"
     mask="none"
     transform="matrix(-0.84549112,-0.53398949,-0.58710208,0.80951291,0,0)"
     style="fill:#ffffff;fill-opacity:0.10000003;stroke-width:0.36655" />
  <rect
     id="rect24"
     width="4.0320454"
     height="4.0320454"
     x="-381.9953"
     y="31.396515"
     fill="#fee8af"
     fill-opacity=".1"
     clip-path="none"
     mask="none"
     transform="matrix(-0.72942382,-0.68406206,-0.72942382,0.68406206,0,0)"
     style="fill:#ffffff;fill-opacity:0.1;stroke-width:0.36655" />
  <rect
     id="rect16-3"
     width="4.0320454"
     height="4.0320454"
     x="-285.98282"
     y="-4.6791792"
     fill="#fee8af"
     fill-opacity=".1"
     clip-path="none"
     mask="none"
     transform="matrix(-0.72942382,-0.68406206,-0.72942382,0.68406206,0,0)"
     style="fill:#ffffff;fill-opacity:0.10000003;stroke-width:0.36655" />
  <rect
     id="rect18-6"
     width="4.0320454"
     height="4.0320454"
     x="-305.42203"
     y="-0.12882982"
     fill="#fee8af"
     fill-opacity=".1"
     clip-path="none"
     mask="none"
     transform="matrix(-0.72942382,-0.68406206,-0.72942382,0.68406206,0,0)"
     style="fill:#ffffff;fill-opacity:0.10000003;stroke-width:0.36655" />
  <rect
     id="rect20-7"
     width="4.0320454"
     height="4.0320454"
     x="-274.52808"
     y="76.143684"
     fill="#fee8af"
     fill-opacity=".1"
     clip-path="none"
     mask="none"
     transform="matrix(-0.84549112,-0.53398949,-0.58710208,0.80951291,0,0)"
     style="fill:#ffffff;fill-opacity:0.10000003;stroke-width:0.36655" />
  <rect
     id="rect22-5"
     width="4.0320454"
     height="4.0320454"
     x="-306.71814"
     y="20.347357"
     fill="#fee8af"
     fill-opacity=".1"
     clip-path="none"
     mask="none"
     transform="matrix(-0.72942382,-0.68406206,-0.72942382,0.68406206,0,0)"
     style="fill:#ffffff;fill-opacity:0.10000003;stroke-width:0.36655" />
  <rect
     id="rect24-3"
     width="4.0320454"
     height="4.0320454"
     x="-327.97177"
     y="22.420937"
     fill="#fee8af"
     fill-opacity=".1"
     clip-path="none"
     mask="none"
     transform="matrix(-0.72942382,-0.68406206,-0.72942382,0.68406206,0,0)"
     style="fill:#ffffff;fill-opacity:0.10000003;stroke-width:0.36655" />
  <rect
     id="rect16-5"
     width="4.0320454"
     height="4.0320454"
     x="-345.95401"
     y="-4.9038978"
     fill="#fee8af"
     fill-opacity=".1"
     clip-path="none"
     mask="none"
     transform="matrix(-0.72942382,-0.68406206,-0.72942382,0.68406206,0,0)"
     style="fill:#ffffff;fill-opacity:0.10000003;stroke-width:0.36655" />
  <rect
     id="rect18-62"
     width="4.0320454"
     height="4.0320454"
     x="-365.39322"
     y="-0.35355192"
     fill="#fee8af"
     fill-opacity=".1"
     clip-path="none"
     mask="none"
     transform="matrix(-0.72942382,-0.68406206,-0.72942382,0.68406206,0,0)"
     style="fill:#ffffff;fill-opacity:0.10000003;stroke-width:0.36655" />
  <rect
     id="rect20-9"
     width="4.0320454"
     height="4.0320454"
     x="-351.65643"
     y="17.530771"
     fill="#fee8af"
     fill-opacity=".1"
     clip-path="none"
     mask="none"
     transform="matrix(-0.72942382,-0.68406206,-0.72942382,0.68406206,0,0)"
     style="fill:#ffffff;fill-opacity:0.10000003;stroke-width:0.36655" />
  <rect
     id="rect22-1"
     width="4.0320454"
     height="4.0320454"
     x="-418.21274"
     y="-37.490749"
     fill="#fee8af"
     fill-opacity=".1"
     clip-path="none"
     mask="none"
     transform="matrix(-0.72942382,-0.68406206,-0.72942382,0.68406206,0,0)"
     style="fill:#ffffff;fill-opacity:0.1;stroke-width:0.36655" />
  <rect
     id="rect24-2"
     width="4.0320454"
     height="4.0320454"
     x="-439.4664"
     y="-35.417175"
     fill="#fee8af"
     fill-opacity=".1"
     clip-path="none"
     mask="none"
     transform="matrix(-0.72942382,-0.68406206,-0.72942382,0.68406206,0,0)"
     style="fill:#ffffff;fill-opacity:0.1;stroke-width:0.36655" />
  <rect
     id="rect16-7"
     width="4.0320454"
     height="4.0320454"
     x="-398.79099"
     y="47.933029"
     fill="#fee8af"
     fill-opacity=".1"
     clip-path="none"
     mask="none"
     transform="matrix(-0.72942382,-0.68406206,-0.72942382,0.68406206,0,0)"
     style="fill:#ffffff;fill-opacity:0.1;stroke-width:0.36655" />
  <rect
     id="rect18-0"
     width="4.0320454"
     height="4.0320454"
     x="-418.23019"
     y="52.483376"
     fill="#fee8af"
     fill-opacity=".1"
     clip-path="none"
     mask="none"
     transform="matrix(-0.72942382,-0.68406206,-0.72942382,0.68406206,0,0)"
     style="fill:#ffffff;fill-opacity:0.1;stroke-width:0.36655" />
  <rect
     id="rect20-93"
     width="4.0320454"
     height="4.0320454"
     x="-404.49338"
     y="70.367691"
     fill="#fee8af"
     fill-opacity=".1"
     clip-path="none"
     mask="none"
     transform="matrix(-0.72942382,-0.68406206,-0.72942382,0.68406206,0,0)"
     style="fill:#ffffff;fill-opacity:0.1;stroke-width:0.36655" />
  <rect
     id="rect22-6"
     width="4.0320454"
     height="4.0320454"
     x="-419.52631"
     y="72.959564"
     fill="#fee8af"
     fill-opacity=".1"
     clip-path="none"
     mask="none"
     transform="matrix(-0.72942382,-0.68406206,-0.72942382,0.68406206,0,0)"
     style="fill:#ffffff;fill-opacity:0.1;stroke-width:0.36655" />
  <rect
     id="rect24-0"
     width="4.0320454"
     height="4.0320454"
     x="-440.77994"
     y="75.033142"
     fill="#fee8af"
     fill-opacity=".1"
     clip-path="none"
     mask="none"
     transform="matrix(-0.72942382,-0.68406206,-0.72942382,0.68406206,0,0)"
     style="fill:#ffffff;fill-opacity:0.1;stroke-width:0.36655" />
  <rect
     id="rect16-3-6"
     width="4.0320454"
     height="4.0320454"
     x="-396.29086"
     y="-18.655949"
     fill="#fee8af"
     fill-opacity=".1"
     clip-path="none"
     mask="none"
     transform="matrix(-0.72942382,-0.68406206,-0.72942382,0.68406206,0,0)"
     style="fill:#ffffff;fill-opacity:0.1;stroke-width:0.36655" />
  <rect
     id="rect18-6-2"
     width="4.0320454"
     height="4.0320454"
     x="-415.73007"
     y="-14.105602"
     fill="#fee8af"
     fill-opacity=".1"
     clip-path="none"
     mask="none"
     transform="matrix(-0.72942382,-0.68406206,-0.72942382,0.68406206,0,0)"
     style="fill:#ffffff;fill-opacity:0.1;stroke-width:0.36655" />
  <rect
     id="rect20-7-6"
     width="4.0320454"
     height="4.0320454"
     x="-401.99329"
     y="3.7787204"
     fill="#fee8af"
     fill-opacity=".1"
     clip-path="none"
     mask="none"
     transform="matrix(-0.72942382,-0.68406206,-0.72942382,0.68406206,0,0)"
     style="fill:#ffffff;fill-opacity:0.1;stroke-width:0.36655" />
  <rect
     id="rect22-5-1"
     width="4.0320454"
     height="4.0320454"
     x="-417.02618"
     y="6.3705859"
     fill="#fee8af"
     fill-opacity=".1"
     clip-path="none"
     mask="none"
     transform="matrix(-0.72942382,-0.68406206,-0.72942382,0.68406206,0,0)"
     style="fill:#ffffff;fill-opacity:0.1;stroke-width:0.36655" />
  <rect
     id="rect24-3-8"
     width="4.0320454"
     height="4.0320454"
     x="-438.27985"
     y="8.4441605"
     fill="#fee8af"
     fill-opacity=".1"
     clip-path="none"
     mask="none"
     transform="matrix(-0.72942382,-0.68406206,-0.72942382,0.68406206,0,0)"
     style="fill:#ffffff;fill-opacity:0.1;stroke-width:0.36655" />
  <rect
     id="rect16-5-7"
     width="4.0320454"
     height="4.0320454"
     x="-452.42722"
     y="-61.084068"
     fill="#fee8af"
     fill-opacity=".1"
     clip-path="none"
     mask="none"
     transform="matrix(-0.72942382,-0.68406206,-0.72942382,0.68406206,0,0)"
     style="fill:#ffffff;fill-opacity:0.1;stroke-width:0.36655" />
  <rect
     id="rect18-62-9"
     width="4.0320454"
     height="4.0320454"
     x="-471.86639"
     y="-56.533722"
     fill="#fee8af"
     fill-opacity=".1"
     clip-path="none"
     mask="none"
     transform="matrix(-0.72942382,-0.68406206,-0.72942382,0.68406206,0,0)"
     style="fill:#ffffff;fill-opacity:0.1;stroke-width:0.36655" />
  <rect
     id="rect20-9-2"
     width="4.0320454"
     height="4.0320454"
     x="-458.12961"
     y="-38.649399"
     fill="#fee8af"
     fill-opacity=".1"
     clip-path="none"
     mask="none"
     transform="matrix(-0.72942382,-0.68406206,-0.72942382,0.68406206,0,0)"
     style="fill:#ffffff;fill-opacity:0.1;stroke-width:0.36655" />
  <rect
     id="rect22-1-0"
     width="4.0320454"
     height="4.0320454"
     x="-473.16254"
     y="-36.057537"
     fill="#fee8af"
     fill-opacity=".1"
     clip-path="none"
     mask="none"
     transform="matrix(-0.72942382,-0.68406206,-0.72942382,0.68406206,0,0)"
     style="fill:#ffffff;fill-opacity:0.1;stroke-width:0.36655" />
  <rect
     id="rect24-2-2"
     width="4.0320454"
     height="4.0320454"
     x="-494.41617"
     y="-33.983963"
     fill="#fee8af"
     fill-opacity=".1"
     clip-path="none"
     mask="none"
     transform="matrix(-0.72942382,-0.68406206,-0.72942382,0.68406206,0,0)"
     style="fill:#ffffff;fill-opacity:0.1;stroke-width:0.36655" />
  <rect
     id="rect16-37"
     width="4.0320454"
     height="4.0320454"
     x="-271.78262"
     y="-87.13942"
     fill="#fee8af"
     fill-opacity=".1"
     clip-path="none"
     mask="none"
     transform="matrix(-0.72942382,-0.68406206,-0.72942382,0.68406206,0,0)"
     style="fill:#ffffff;fill-opacity:0.10000003;stroke-width:0.36655" />
  <rect
     id="rect18-5"
     width="4.0320454"
     height="4.0320454"
     x="-291.2218"
     y="-82.589066"
     fill="#fee8af"
     fill-opacity=".1"
     clip-path="none"
     mask="none"
     transform="matrix(-0.72942382,-0.68406206,-0.72942382,0.68406206,0,0)"
     style="fill:#ffffff;fill-opacity:0.10000003;stroke-width:0.36655" />
  <rect
     id="rect20-92"
     width="4.0320454"
     height="4.0320454"
     x="-277.48502"
     y="-64.704742"
     fill="#fee8af"
     fill-opacity=".1"
     clip-path="none"
     mask="none"
     transform="matrix(-0.72942382,-0.68406206,-0.72942382,0.68406206,0,0)"
     style="fill:#ffffff;fill-opacity:0.10000003;stroke-width:0.36655" />
  <rect
     id="rect22-2"
     width="4.0320454"
     height="4.0320454"
     x="-292.51794"
     y="-62.112877"
     fill="#fee8af"
     fill-opacity=".1"
     clip-path="none"
     mask="none"
     transform="matrix(-0.72942382,-0.68406206,-0.72942382,0.68406206,0,0)"
     style="fill:#ffffff;fill-opacity:0.10000003;stroke-width:0.36655" />
  <rect
     id="rect24-8"
     width="4.0320454"
     height="4.0320454"
     x="-313.77158"
     y="-60.039307"
     fill="#fee8af"
     fill-opacity=".1"
     clip-path="none"
     mask="none"
     transform="matrix(-0.72942382,-0.68406206,-0.72942382,0.68406206,0,0)"
     style="fill:#ffffff;fill-opacity:0.10000003;stroke-width:0.36655" />
  <rect
     id="rect16-3-9"
     width="4.0320454"
     height="4.0320454"
     x="-269.2825"
     y="-153.72839"
     fill="#fee8af"
     fill-opacity=".1"
     clip-path="none"
     mask="none"
     transform="matrix(-0.72942382,-0.68406206,-0.72942382,0.68406206,0,0)"
     style="fill:#ffffff;fill-opacity:0.10000003;stroke-width:0.36655" />
  <rect
     id="rect18-6-7"
     width="4.0320454"
     height="4.0320454"
     x="-288.72171"
     y="-149.17804"
     fill="#fee8af"
     fill-opacity=".1"
     clip-path="none"
     mask="none"
     transform="matrix(-0.72942382,-0.68406206,-0.72942382,0.68406206,0,0)"
     style="fill:#ffffff;fill-opacity:0.10000003;stroke-width:0.36655" />
  <rect
     id="rect20-7-3"
     width="4.0320454"
     height="4.0320454"
     x="-274.98489"
     y="-131.29372"
     fill="#fee8af"
     fill-opacity=".1"
     clip-path="none"
     mask="none"
     transform="matrix(-0.72942382,-0.68406206,-0.72942382,0.68406206,0,0)"
     style="fill:#ffffff;fill-opacity:0.10000003;stroke-width:0.36655" />
  <rect
     id="rect22-5-6"
     width="4.0320454"
     height="4.0320454"
     x="-290.01782"
     y="-128.70186"
     fill="#fee8af"
     fill-opacity=".1"
     clip-path="none"
     mask="none"
     transform="matrix(-0.72942382,-0.68406206,-0.72942382,0.68406206,0,0)"
     style="fill:#ffffff;fill-opacity:0.10000003;stroke-width:0.36655" />
  <rect
     id="rect24-3-1"
     width="4.0320454"
     height="4.0320454"
     x="-311.27145"
     y="-126.62827"
     fill="#fee8af"
     fill-opacity=".1"
     clip-path="none"
     mask="none"
     transform="matrix(-0.72942382,-0.68406206,-0.72942382,0.68406206,0,0)"
     style="fill:#ffffff;fill-opacity:0.10000003;stroke-width:0.36655" />
  <rect
     id="rect16-5-2"
     width="4.0320454"
     height="4.0320454"
     x="-329.25369"
     y="-153.95311"
     fill="#fee8af"
     fill-opacity=".1"
     clip-path="none"
     mask="none"
     transform="matrix(-0.72942382,-0.68406206,-0.72942382,0.68406206,0,0)"
     style="fill:#ffffff;fill-opacity:0.10000003;stroke-width:0.36655" />
  <rect
     id="rect18-62-93"
     width="4.0320454"
     height="4.0320454"
     x="-348.6929"
     y="-149.40276"
     fill="#fee8af"
     fill-opacity=".1"
     clip-path="none"
     mask="none"
     transform="matrix(-0.72942382,-0.68406206,-0.72942382,0.68406206,0,0)"
     style="fill:#ffffff;fill-opacity:0.10000003;stroke-width:0.36655" />
  <rect
     id="rect20-9-1"
     width="4.0320454"
     height="4.0320454"
     x="-334.95612"
     y="-131.51843"
     fill="#fee8af"
     fill-opacity=".1"
     clip-path="none"
     mask="none"
     transform="matrix(-0.72942382,-0.68406206,-0.72942382,0.68406206,0,0)"
     style="fill:#ffffff;fill-opacity:0.10000003;stroke-width:0.36655" />
  <rect
     id="rect22-1-9"
     width="4.0320454"
     height="4.0320454"
     x="-349.98901"
     y="-128.92657"
     fill="#fee8af"
     fill-opacity=".1"
     clip-path="none"
     mask="none"
     transform="matrix(-0.72942382,-0.68406206,-0.72942382,0.68406206,0,0)"
     style="fill:#ffffff;fill-opacity:0.10000003;stroke-width:0.36655" />
  <rect
     id="rect24-2-4"
     width="4.0320454"
     height="4.0320454"
     x="-371.24268"
     y="-126.853"
     fill="#fee8af"
     fill-opacity=".1"
     clip-path="none"
     mask="none"
     transform="matrix(-0.72942382,-0.68406206,-0.72942382,0.68406206,0,0)"
     style="fill:#ffffff;fill-opacity:0.10000003;stroke-width:0.36655" />
  <rect
     id="rect16-7-7"
     width="4.0320454"
     height="4.0320454"
     x="-330.56726"
     y="-43.502792"
     fill="#fee8af"
     fill-opacity=".1"
     clip-path="none"
     mask="none"
     transform="matrix(-0.72942382,-0.68406206,-0.72942382,0.68406206,0,0)"
     style="fill:#ffffff;fill-opacity:0.10000003;stroke-width:0.36655" />
  <rect
     id="rect18-0-8"
     width="4.0320454"
     height="4.0320454"
     x="-350.00647"
     y="-38.952446"
     fill="#fee8af"
     fill-opacity=".1"
     clip-path="none"
     mask="none"
     transform="matrix(-0.72942382,-0.68406206,-0.72942382,0.68406206,0,0)"
     style="fill:#ffffff;fill-opacity:0.10000003;stroke-width:0.36655" />
  <rect
     id="rect20-93-4"
     width="4.0320454"
     height="4.0320454"
     x="-336.26965"
     y="-21.068129"
     fill="#fee8af"
     fill-opacity=".1"
     clip-path="none"
     mask="none"
     transform="matrix(-0.72942382,-0.68406206,-0.72942382,0.68406206,0,0)"
     style="fill:#ffffff;fill-opacity:0.10000003;stroke-width:0.36655" />
  <rect
     id="rect22-6-5"
     width="4.0320454"
     height="4.0320454"
     x="-351.30258"
     y="-18.476255"
     fill="#fee8af"
     fill-opacity=".1"
     clip-path="none"
     mask="none"
     transform="matrix(-0.72942382,-0.68406206,-0.72942382,0.68406206,0,0)"
     style="fill:#ffffff;fill-opacity:0.10000003;stroke-width:0.36655" />
  <rect
     id="rect24-0-0"
     width="4.0320454"
     height="4.0320454"
     x="-372.55621"
     y="-16.402678"
     fill="#fee8af"
     fill-opacity=".1"
     clip-path="none"
     mask="none"
     transform="matrix(-0.72942382,-0.68406206,-0.72942382,0.68406206,0,0)"
     style="fill:#ffffff;fill-opacity:0.10000003;stroke-width:0.36655" />
  <rect
     id="rect16-3-6-3"
     width="4.0320454"
     height="4.0320454"
     x="-328.06714"
     y="-110.09177"
     fill="#fee8af"
     fill-opacity=".1"
     clip-path="none"
     mask="none"
     transform="matrix(-0.72942382,-0.68406206,-0.72942382,0.68406206,0,0)"
     style="fill:#ffffff;fill-opacity:0.10000003;stroke-width:0.36655" />
  <rect
     id="rect18-6-2-6"
     width="4.0320454"
     height="4.0320454"
     x="-347.50635"
     y="-105.54142"
     fill="#fee8af"
     fill-opacity=".1"
     clip-path="none"
     mask="none"
     transform="matrix(-0.72942382,-0.68406206,-0.72942382,0.68406206,0,0)"
     style="fill:#ffffff;fill-opacity:0.10000003;stroke-width:0.36655" />
  <rect
     id="rect20-7-6-1"
     width="4.0320454"
     height="4.0320454"
     x="-333.76956"
     y="-87.657104"
     fill="#fee8af"
     fill-opacity=".1"
     clip-path="none"
     mask="none"
     transform="matrix(-0.72942382,-0.68406206,-0.72942382,0.68406206,0,0)"
     style="fill:#ffffff;fill-opacity:0.10000003;stroke-width:0.36655" />
  <rect
     id="rect22-5-1-0"
     width="4.0320454"
     height="4.0320454"
     x="-348.80246"
     y="-85.065239"
     fill="#fee8af"
     fill-opacity=".1"
     clip-path="none"
     mask="none"
     transform="matrix(-0.72942382,-0.68406206,-0.72942382,0.68406206,0,0)"
     style="fill:#ffffff;fill-opacity:0.10000003;stroke-width:0.36655" />
  <rect
     id="rect24-3-8-6"
     width="4.0320454"
     height="4.0320454"
     x="-370.05612"
     y="-82.991661"
     fill="#fee8af"
     fill-opacity=".1"
     clip-path="none"
     mask="none"
     transform="matrix(-0.72942382,-0.68406206,-0.72942382,0.68406206,0,0)"
     style="fill:#ffffff;fill-opacity:0.10000003;stroke-width:0.36655" />
  <rect
     id="rect16-5-7-3"
     width="4.0320454"
     height="4.0320454"
     x="-388.03836"
     y="-110.31649"
     fill="#fee8af"
     fill-opacity=".1"
     clip-path="none"
     mask="none"
     transform="matrix(-0.72942382,-0.68406206,-0.72942382,0.68406206,0,0)"
     style="fill:#ffffff;fill-opacity:0.10000003;stroke-width:0.36655" />
  <rect
     id="rect18-62-9-2"
     width="4.0320454"
     height="4.0320454"
     x="-407.47754"
     y="-105.76614"
     fill="#fee8af"
     fill-opacity=".1"
     clip-path="none"
     mask="none"
     transform="matrix(-0.72942382,-0.68406206,-0.72942382,0.68406206,0,0)"
     style="fill:#ffffff;fill-opacity:0.10000003;stroke-width:0.36655" />
  <rect
     id="rect20-9-2-0"
     width="4.0320454"
     height="4.0320454"
     x="-393.74075"
     y="-87.881821"
     fill="#fee8af"
     fill-opacity=".1"
     clip-path="none"
     mask="none"
     transform="matrix(-0.72942382,-0.68406206,-0.72942382,0.68406206,0,0)"
     style="fill:#ffffff;fill-opacity:0.10000003;stroke-width:0.36655" />
  <rect
     id="rect22-1-0-6"
     width="4.0320454"
     height="4.0320454"
     x="-408.77368"
     y="-85.289963"
     fill="#fee8af"
     fill-opacity=".1"
     clip-path="none"
     mask="none"
     transform="matrix(-0.72942382,-0.68406206,-0.72942382,0.68406206,0,0)"
     style="fill:#ffffff;fill-opacity:0.10000003;stroke-width:0.36655" />
  <rect
     id="rect24-2-2-1"
     width="4.0320454"
     height="4.0320454"
     x="-430.02734"
     y="-83.216385"
     fill="#fee8af"
     fill-opacity=".1"
     clip-path="none"
     mask="none"
     transform="matrix(-0.72942382,-0.68406206,-0.72942382,0.68406206,0,0)"
     style="fill:#ffffff;fill-opacity:0.10000003;stroke-width:0.36655" />
  <rect
     id="rect16-55"
     width="4.0320454"
     height="4.0320454"
     x="-127.4141"
     y="1.5745689"
     fill="#fee8af"
     fill-opacity=".1"
     clip-path="none"
     mask="none"
     transform="matrix(-0.84549112,-0.53398949,-0.58710208,0.80951291,0,0)"
     style="fill:#ffffff;fill-opacity:0.1;stroke-width:0.36655" />
  <rect
     id="rect18-4"
     width="4.0320454"
     height="4.0320454"
     x="-146.85329"
     y="6.1249151"
     fill="#fee8af"
     fill-opacity=".1"
     clip-path="none"
     mask="none"
     transform="matrix(-0.84549112,-0.53398949,-0.58710208,0.80951291,0,0)"
     style="fill:#ffffff;fill-opacity:0.1;stroke-width:0.36655" />
  <rect
     id="rect20-76"
     width="4.0320454"
     height="4.0320454"
     x="-133.1165"
     y="24.009239"
     fill="#fee8af"
     fill-opacity=".1"
     clip-path="none"
     mask="none"
     transform="matrix(-0.84549112,-0.53398949,-0.58710208,0.80951291,0,0)"
     style="fill:#ffffff;fill-opacity:0.1;stroke-width:0.36655" />
  <rect
     id="rect22-56"
     width="4.0320454"
     height="4.0320454"
     x="-148.14943"
     y="26.601105"
     fill="#fee8af"
     fill-opacity=".1"
     clip-path="none"
     mask="none"
     transform="matrix(-0.84549112,-0.53398949,-0.58710208,0.80951291,0,0)"
     style="fill:#ffffff;fill-opacity:0.1;stroke-width:0.36655" />
  <rect
     id="rect24-9"
     width="4.0320454"
     height="4.0320454"
     x="-169.40306"
     y="28.674675"
     fill="#fee8af"
     fill-opacity=".1"
     clip-path="none"
     mask="none"
     transform="matrix(-0.84549112,-0.53398949,-0.58710208,0.80951291,0,0)"
     style="fill:#ffffff;fill-opacity:0.1;stroke-width:0.36655" />
  <rect
     id="rect16-3-3"
     width="4.0320454"
     height="4.0320454"
     x="-124.91398"
     y="-65.014412"
     fill="#fee8af"
     fill-opacity=".1"
     clip-path="none"
     mask="none"
     transform="matrix(-0.84549112,-0.53398949,-0.58710208,0.80951291,0,0)"
     style="fill:#ffffff;fill-opacity:0.1;stroke-width:0.36655" />
  <rect
     id="rect18-6-74"
     width="4.0320454"
     height="4.0320454"
     x="-144.3532"
     y="-60.464058"
     fill="#fee8af"
     fill-opacity=".1"
     clip-path="none"
     mask="none"
     transform="matrix(-0.84549112,-0.53398949,-0.58710208,0.80951291,0,0)"
     style="fill:#ffffff;fill-opacity:0.1;stroke-width:0.36655" />
  <rect
     id="rect20-7-5"
     width="4.0320454"
     height="4.0320454"
     x="-130.61638"
     y="-42.579735"
     fill="#fee8af"
     fill-opacity=".1"
     clip-path="none"
     mask="none"
     transform="matrix(-0.84549112,-0.53398949,-0.58710208,0.80951291,0,0)"
     style="fill:#ffffff;fill-opacity:0.1;stroke-width:0.36655" />
  <rect
     id="rect22-5-2"
     width="4.0320454"
     height="4.0320454"
     x="-145.64931"
     y="-39.987869"
     fill="#fee8af"
     fill-opacity=".1"
     clip-path="none"
     mask="none"
     transform="matrix(-0.84549112,-0.53398949,-0.58710208,0.80951291,0,0)"
     style="fill:#ffffff;fill-opacity:0.1;stroke-width:0.36655" />
  <rect
     id="rect24-3-5"
     width="4.0320454"
     height="4.0320454"
     x="-166.90294"
     y="-37.914291"
     fill="#fee8af"
     fill-opacity=".1"
     clip-path="none"
     mask="none"
     transform="matrix(-0.84549112,-0.53398949,-0.58710208,0.80951291,0,0)"
     style="fill:#ffffff;fill-opacity:0.1;stroke-width:0.36655" />
  <rect
     id="rect16-5-4"
     width="4.0320454"
     height="4.0320454"
     x="-184.88518"
     y="-65.239128"
     fill="#fee8af"
     fill-opacity=".1"
     clip-path="none"
     mask="none"
     transform="matrix(-0.84549112,-0.53398949,-0.58710208,0.80951291,0,0)"
     style="fill:#ffffff;fill-opacity:0.1;stroke-width:0.36655" />
  <rect
     id="rect18-62-7"
     width="4.0320454"
     height="4.0320454"
     x="-204.32439"
     y="-60.688782"
     fill="#fee8af"
     fill-opacity=".1"
     clip-path="none"
     mask="none"
     transform="matrix(-0.84549112,-0.53398949,-0.58710208,0.80951291,0,0)"
     style="fill:#ffffff;fill-opacity:0.1;stroke-width:0.36655" />
  <rect
     id="rect20-9-4"
     width="4.0320454"
     height="4.0320454"
     x="-190.5876"
     y="-42.804459"
     fill="#fee8af"
     fill-opacity=".1"
     clip-path="none"
     mask="none"
     transform="matrix(-0.84549112,-0.53398949,-0.58710208,0.80951291,0,0)"
     style="fill:#ffffff;fill-opacity:0.1;stroke-width:0.36655" />
  <rect
     id="rect22-1-4"
     width="4.0320454"
     height="4.0320454"
     x="-205.6205"
     y="-40.212593"
     fill="#fee8af"
     fill-opacity=".1"
     clip-path="none"
     mask="none"
     transform="matrix(-0.84549112,-0.53398949,-0.58710208,0.80951291,0,0)"
     style="fill:#ffffff;fill-opacity:0.1;stroke-width:0.36655" />
  <rect
     id="rect24-2-3"
     width="4.0320454"
     height="4.0320454"
     x="-226.87416"
     y="-38.139015"
     fill="#fee8af"
     fill-opacity=".1"
     clip-path="none"
     mask="none"
     transform="matrix(-0.84549112,-0.53398949,-0.58710208,0.80951291,0,0)"
     style="fill:#ffffff;fill-opacity:0.1;stroke-width:0.36655" />
  <rect
     id="rect16-7-0"
     width="4.0320454"
     height="4.0320454"
     x="-186.19875"
     y="45.211189"
     fill="#fee8af"
     fill-opacity=".1"
     clip-path="none"
     mask="none"
     transform="matrix(-0.84549112,-0.53398949,-0.58710208,0.80951291,0,0)"
     style="fill:#ffffff;fill-opacity:0.1;stroke-width:0.36655" />
  <rect
     id="rect18-0-7"
     width="4.0320454"
     height="4.0320454"
     x="-205.63795"
     y="49.761536"
     fill="#fee8af"
     fill-opacity=".1"
     clip-path="none"
     mask="none"
     transform="matrix(-0.84549112,-0.53398949,-0.58710208,0.80951291,0,0)"
     style="fill:#ffffff;fill-opacity:0.1;stroke-width:0.36655" />
  <rect
     id="rect20-93-8"
     width="4.0320454"
     height="4.0320454"
     x="-191.90114"
     y="67.645851"
     fill="#fee8af"
     fill-opacity=".1"
     clip-path="none"
     mask="none"
     transform="matrix(-0.84549112,-0.53398949,-0.58710208,0.80951291,0,0)"
     style="fill:#ffffff;fill-opacity:0.1;stroke-width:0.36655" />
  <rect
     id="rect22-6-6"
     width="4.0320454"
     height="4.0320454"
     x="-225.96454"
     y="92.0849"
     fill="#fee8af"
     fill-opacity=".1"
     clip-path="none"
     mask="none"
     transform="matrix(-0.84549112,-0.53398949,-0.58710208,0.80951291,0,0)"
     style="fill:#ffffff;fill-opacity:0.1;stroke-width:0.36655" />
  <rect
     id="rect24-0-8"
     width="4.0320454"
     height="4.0320454"
     x="-247.21817"
     y="94.158478"
     fill="#fee8af"
     fill-opacity=".1"
     clip-path="none"
     mask="none"
     transform="matrix(-0.84549112,-0.53398949,-0.58710208,0.80951291,0,0)"
     style="fill:#ffffff;fill-opacity:0.1;stroke-width:0.36655" />
  <rect
     id="rect16-3-6-8"
     width="4.0320454"
     height="4.0320454"
     x="-183.69862"
     y="-21.37779"
     fill="#fee8af"
     fill-opacity=".1"
     clip-path="none"
     mask="none"
     transform="matrix(-0.84549112,-0.53398949,-0.58710208,0.80951291,0,0)"
     style="fill:#ffffff;fill-opacity:0.1;stroke-width:0.36655" />
  <rect
     id="rect18-6-2-4"
     width="4.0320454"
     height="4.0320454"
     x="-203.13783"
     y="-16.827442"
     fill="#fee8af"
     fill-opacity=".1"
     clip-path="none"
     mask="none"
     transform="matrix(-0.84549112,-0.53398949,-0.58710208,0.80951291,0,0)"
     style="fill:#ffffff;fill-opacity:0.1;stroke-width:0.36655" />
  <rect
     id="rect20-7-6-3"
     width="4.0320454"
     height="4.0320454"
     x="-189.40105"
     y="1.0568839"
     fill="#fee8af"
     fill-opacity=".1"
     clip-path="none"
     mask="none"
     transform="matrix(-0.84549112,-0.53398949,-0.58710208,0.80951291,0,0)"
     style="fill:#ffffff;fill-opacity:0.1;stroke-width:0.36655" />
  <rect
     id="rect22-5-1-1"
     width="4.0320454"
     height="4.0320454"
     x="-204.43394"
     y="3.6487455"
     fill="#fee8af"
     fill-opacity=".1"
     clip-path="none"
     mask="none"
     transform="matrix(-0.84549112,-0.53398949,-0.58710208,0.80951291,0,0)"
     style="fill:#ffffff;fill-opacity:0.1;stroke-width:0.36655" />
  <rect
     id="rect24-3-8-4"
     width="4.0320454"
     height="4.0320454"
     x="-225.68761"
     y="5.7223196"
     fill="#fee8af"
     fill-opacity=".1"
     clip-path="none"
     mask="none"
     transform="matrix(-0.84549112,-0.53398949,-0.58710208,0.80951291,0,0)"
     style="fill:#ffffff;fill-opacity:0.1;stroke-width:0.36655" />
  <rect
     id="rect16-5-7-9"
     width="4.0320454"
     height="4.0320454"
     x="-243.66985"
     y="-21.602507"
     fill="#fee8af"
     fill-opacity=".1"
     clip-path="none"
     mask="none"
     transform="matrix(-0.84549112,-0.53398949,-0.58710208,0.80951291,0,0)"
     style="fill:#ffffff;fill-opacity:0.1;stroke-width:0.36655" />
  <rect
     id="rect18-62-9-20"
     width="4.0320454"
     height="4.0320454"
     x="-263.10901"
     y="-17.05216"
     fill="#fee8af"
     fill-opacity=".1"
     clip-path="none"
     mask="none"
     transform="matrix(-0.84549112,-0.53398949,-0.58710208,0.80951291,0,0)"
     style="fill:#ffffff;fill-opacity:0.1;stroke-width:0.36655" />
  <rect
     id="rect20-9-2-6"
     width="4.0320454"
     height="4.0320454"
     x="-249.37224"
     y="0.83216387"
     fill="#fee8af"
     fill-opacity=".1"
     clip-path="none"
     mask="none"
     transform="matrix(-0.84549112,-0.53398949,-0.58710208,0.80951291,0,0)"
     style="fill:#ffffff;fill-opacity:0.1;stroke-width:0.36655" />
  <rect
     id="rect22-1-0-8"
     width="4.0320454"
     height="4.0320454"
     x="-264.40515"
     y="3.4240217"
     fill="#fee8af"
     fill-opacity=".1"
     clip-path="none"
     mask="none"
     transform="matrix(-0.84549112,-0.53398949,-0.58710208,0.80951291,0,0)"
     style="fill:#ffffff;fill-opacity:0.1;stroke-width:0.36655" />
  <rect
     id="rect24-2-2-9"
     width="4.0320454"
     height="4.0320454"
     x="-285.65878"
     y="5.4975958"
     fill="#fee8af"
     fill-opacity=".1"
     clip-path="none"
     mask="none"
     transform="matrix(-0.84549112,-0.53398949,-0.58710208,0.80951291,0,0)"
     style="fill:#ffffff;fill-opacity:0.1;stroke-width:0.36655" />
  <defs
     id="defs36">
    <linearGradient
       id="paint0_linear_2_2"
       x1="180"
       x2="180"
       y1="0"
       y2="646"
       gradientUnits="userSpaceOnUse">
      <stop
         id="stop28"
         stop-color="#22262B" />
      <stop
         id="stop30"
         offset="1"
         stop-color="#3B3449" />
    </linearGradient>
    <clipPath
       id="clipPath405"
       clipPathUnits="userSpaceOnUse">
      <g
         id="g409">
        <rect
           id="rect407"
           width="360"
           height="646"
           x="0"
           y="0"
           fill="#fff" />
      </g>
    </clipPath>
  </defs>
</svg>
