<?xml version="1.0" encoding="UTF-8" standalone="no"?>
<svg
   width="360"
   height="705"
   viewBox="0 0 360 705"
   fill="none"
   version="1.1"
   id="svg36"
   sodipodi:docname="rain.svg"
   inkscape:version="1.2.1 (9c6d41e410, 2022-07-14)"
   xmlns:inkscape="http://www.inkscape.org/namespaces/inkscape"
   xmlns:sodipodi="http://sodipodi.sourceforge.net/DTD/sodipodi-0.dtd"
   xmlns="http://www.w3.org/2000/svg"
   xmlns:svg="http://www.w3.org/2000/svg">
  <sodipodi:namedview
     id="namedview38"
     pagecolor="#ffffff"
     bordercolor="#000000"
     borderopacity="0.25"
     inkscape:showpageshadow="2"
     inkscape:pageopacity="0.0"
     inkscape:pagecheckerboard="0"
     inkscape:deskcolor="#d1d1d1"
     showgrid="false"
     inkscape:zoom="1.2105263"
     inkscape:cx="165.63044"
     inkscape:cy="346.13044"
     inkscape:window-width="2560"
     inkscape:window-height="911"
     inkscape:window-x="0"
     inkscape:window-y="0"
     inkscape:window-maximized="1"
     inkscape:current-layer="g24" />
  <g
     clip-path="url(#clip0_1_2)"
     id="g24">
    <rect
       width="7"
       height="391"
       transform="matrix(-0.939426,0.342753,0.342753,0.939426,174.372,-7.35733)"
       fill="#ffffff"
       fill-opacity="0.1"
       id="rect4"
       x="0"
       y="0" />
    <rect
       width="7"
       height="581.78601"
       transform="matrix(-0.939426,0.342753,0.342753,0.939426,7.18356,-17.2291)"
       fill="#ffffff"
       fill-opacity="0.1"
       id="rect6"
       x="0"
       y="0" />
    <rect
       width="7"
       height="9.0427799"
       transform="matrix(-0.939426,0.342753,0.342753,0.939426,208.493,536.82)"
       fill="#ffffff"
       fill-opacity="0.1"
       id="rect8"
       x="0"
       y="0" />
    <rect
       width="7"
       height="9.0427799"
       transform="matrix(-0.939426,0.342753,0.342753,0.939426,328.493,600)"
       fill="#ffffff"
       fill-opacity="0.1"
       id="rect10"
       x="0"
       y="0" />
    <rect
       width="7"
       height="9.0427799"
       transform="matrix(-0.939426,0.342753,0.342753,0.939426,312.493,368)"
       fill="#ffffff"
       fill-opacity="0.1"
       id="rect12"
       x="0"
       y="0" />
    <rect
       width="7"
       height="9.0427799"
       transform="matrix(-0.939426,0.342753,0.342753,0.939426,183.493,304)"
       fill="#ffffff"
       fill-opacity="0.1"
       id="rect14"
       x="0"
       y="0" />
    <rect
       width="7"
       height="9.0427799"
       transform="matrix(-0.939426,0.342753,0.342753,0.939426,107.493,459)"
       fill="#ffffff"
       fill-opacity="0.1"
       id="rect16"
       x="0"
       y="0" />
    <rect
       width="7"
       height="644.03699"
       transform="matrix(-0.939426,0.342753,0.342753,0.939426,103.385,-15.0455)"
       fill="#ffffff"
       fill-opacity="0.1"
       id="rect18"
       x="0"
       y="0" />
    <rect
       width="7"
       height="391"
       transform="matrix(-0.939426,0.342753,0.342753,0.939426,-28.424,89)"
       fill="#ffffff"
       fill-opacity="0.1"
       id="rect20"
       x="0"
       y="0" />
    <rect
       width="7"
       height="391"
       transform="matrix(-0.939426,0.342753,0.342753,0.939426,47.576,-67)"
       fill="#ffffff"
       fill-opacity="0.1"
       id="rect22"
       x="0"
       y="0" />
  </g>
  <defs
     id="defs34">
    <linearGradient
       id="paint0_linear_1_2"
       x1="180"
       y1="0"
       x2="180"
       y2="646"
       gradientUnits="userSpaceOnUse">
      <stop
         stop-color="#828292"
         id="stop26"
         offset="0"
         style="stop-color:#4f4f5b;stop-opacity:1;" />
      <stop
         offset="1"
         stop-color="#666674"
         id="stop28"
         style="stop-color:#a4a4ad;stop-opacity:1;" />
    </linearGradient>
    <clipPath
       id="clip0_1_2">
      <rect
         width="360"
         height="646"
         fill="#ffffff"
         id="rect31"
         x="0"
         y="0" />
    </clipPath>
  </defs>
</svg>
