<svg xmlns="http://www.w3.org/2000/svg" xmlns:svg="http://www.w3.org/2000/svg" id="svg36" width="414" height="646" fill="none" version="1.1" viewBox="0 0 414 646"><g id="g24" clip-path="url(#clip0_1_2)"><rect id="rect4" width="7" height="391" x="0" y="0" fill="#fff" fill-opacity=".1" transform="matrix(-0.939426,0.342753,0.342753,0.939426,174.372,-7.35733)"/><rect id="rect6" width="7" height="581.786" x="0" y="0" fill="#fff" fill-opacity=".1" transform="matrix(-0.939426,0.342753,0.342753,0.939426,7.18356,-17.2291)"/><rect id="rect8" width="7" height="9.043" x="0" y="0" fill="#fff" fill-opacity=".1" transform="matrix(-0.939426,0.342753,0.342753,0.939426,208.493,536.82)"/><rect id="rect10" width="7" height="9.043" x="0" y="0" fill="#fff" fill-opacity=".1" transform="matrix(-0.939426,0.342753,0.342753,0.939426,328.493,600)"/><rect id="rect12" width="7" height="9.043" x="0" y="0" fill="#fff" fill-opacity=".1" transform="matrix(-0.939426,0.342753,0.342753,0.939426,312.493,368)"/><rect id="rect14" width="7" height="9.043" x="0" y="0" fill="#fff" fill-opacity=".1" transform="matrix(-0.939426,0.342753,0.342753,0.939426,183.493,304)"/><rect id="rect16" width="7" height="9.043" x="0" y="0" fill="#fff" fill-opacity=".1" transform="matrix(-0.939426,0.342753,0.342753,0.939426,107.493,459)"/><rect id="rect18" width="7" height="644.037" x="0" y="0" fill="#fff" fill-opacity=".1" transform="matrix(-0.939426,0.342753,0.342753,0.939426,103.385,-15.0455)"/><rect id="rect20" width="7" height="391" x="0" y="0" fill="#fff" fill-opacity=".1" transform="matrix(-0.939426,0.342753,0.342753,0.939426,-28.424,89)"/><rect id="rect22" width="7" height="391" x="0" y="0" fill="#fff" fill-opacity=".1" transform="matrix(-0.939426,0.342753,0.342753,0.939426,47.576,-67)"/></g><defs id="defs34"><linearGradient id="paint0_linear_1_2" x1="180" x2="180" y1="0" y2="646" gradientUnits="userSpaceOnUse"><stop id="stop26" offset="0" stop-color="#828292" style="stop-color:#4f4f5b;stop-opacity:1"/><stop id="stop28" offset="1" stop-color="#666674" style="stop-color:#a4a4ad;stop-opacity:1"/></linearGradient><clipPath id="clip0_1_2"><rect id="rect31" width="360" height="646" x="0" y="0" fill="#fff"/></clipPath></defs></svg>