<svg width="360" height="646" viewBox="0 0 360 646" fill="none" xmlns="http://www.w3.org/2000/svg">
<g clip-path="url(#clip0_1_2)">
<rect width="360" height="646" fill="url(#paint0_linear_1_2)"/>
<rect width="7" height="391" transform="matrix(-0.939426 0.342753 0.342753 0.939426 174.372 -7.35733)" fill="white" fill-opacity="0.1"/>
<rect width="7" height="581.786" transform="matrix(-0.939426 0.342753 0.342753 0.939426 7.18356 -17.2291)" fill="white" fill-opacity="0.1"/>
<rect width="7" height="9.04278" transform="matrix(-0.939426 0.342753 0.342753 0.939426 208.493 536.82)" fill="white" fill-opacity="0.1"/>
<rect width="7" height="9.04278" transform="matrix(-0.939426 0.342753 0.342753 0.939426 328.493 600)" fill="white" fill-opacity="0.1"/>
<rect width="7" height="9.04278" transform="matrix(-0.939426 0.342753 0.342753 0.939426 312.493 368)" fill="white" fill-opacity="0.1"/>
<rect width="7" height="9.04278" transform="matrix(-0.939426 0.342753 0.342753 0.939426 183.493 304)" fill="white" fill-opacity="0.1"/>
<rect width="7" height="9.04278" transform="matrix(-0.939426 0.342753 0.342753 0.939426 107.493 459)" fill="white" fill-opacity="0.1"/>
<rect width="7" height="644.037" transform="matrix(-0.939426 0.342753 0.342753 0.939426 103.385 -15.0455)" fill="white" fill-opacity="0.1"/>
<rect width="7" height="391" transform="matrix(-0.939426 0.342753 0.342753 0.939426 -28.424 89)" fill="white" fill-opacity="0.1"/>
<rect width="7" height="391" transform="matrix(-0.939426 0.342753 0.342753 0.939426 47.576 -67)" fill="white" fill-opacity="0.1"/>
</g>
<defs>
<linearGradient id="paint0_linear_1_2" x1="180" y1="0" x2="180" y2="646" gradientUnits="userSpaceOnUse">
<stop stop-color="#828292"/>
<stop offset="1" stop-color="#666674"/>
</linearGradient>
<clipPath id="clip0_1_2">
<rect width="360" height="646" fill="white"/>
</clipPath>
</defs>
</svg>
