<svg width="360" height="646" viewBox="0 0 360 646" fill="none" xmlns="http://www.w3.org/2000/svg">
<g clip-path="url(#clip0_1_8)">
<rect width="360" height="646" fill="url(#paint0_linear_1_8)"/>
<rect x="312" y="410" width="35" height="37" rx="17.5" fill="#58A8FA" fill-opacity="0.1"/>
<rect x="30" y="420" width="35" height="37" rx="17.5" fill="#58A8FA" fill-opacity="0.1"/>
<rect x="173" y="286" width="35" height="37" rx="17.5" fill="#58A8FA" fill-opacity="0.1"/>
<rect x="233" y="190" width="35" height="37" rx="17.5" fill="#58A8FA" fill-opacity="0.1"/>
<rect x="295" y="153" width="35" height="37" rx="17.5" fill="#58A8FA" fill-opacity="0.1"/>
<rect x="47" y="323" width="35" height="37" rx="17.5" fill="#58A8FA" fill-opacity="0.1"/>
<rect x="106" y="218" width="35" height="37" rx="17.5" fill="#58A8FA" fill-opacity="0.1"/>
<rect x="12" y="181" width="35" height="37" rx="17.5" fill="#58A8FA" fill-opacity="0.1"/>
<rect x="-39" y="-83" width="230" height="147" rx="73.5" fill="#58A8FA" fill-opacity="0.1"/>
<rect x="52" y="-43" width="230" height="147" rx="73.5" fill="#58A8FA" fill-opacity="0.1"/>
<rect x="180" y="-83" width="230" height="147" rx="73.5" fill="#58A8FA" fill-opacity="0.1"/>
<rect x="-51" y="12" width="230" height="147" rx="73.5" fill="#58A8FA" fill-opacity="0.1"/>
<rect x="153" y="-24" width="230" height="147" rx="73.5" fill="#58A8FA" fill-opacity="0.1"/>
<rect x="268" y="323" width="35" height="37" rx="17.5" fill="#58A8FA" fill-opacity="0.1"/>
<rect x="162" y="392" width="35" height="37" rx="17.5" fill="#58A8FA" fill-opacity="0.1"/>
<rect x="76" y="536" width="35" height="37" rx="17.5" fill="#58A8FA" fill-opacity="0.1"/>
<rect x="224" y="470" width="35" height="37" rx="17.5" fill="#58A8FA" fill-opacity="0.1"/>
</g>
<defs>
<linearGradient id="paint0_linear_1_8" x1="180" y1="0" x2="180" y2="646" gradientUnits="userSpaceOnUse">
<stop stop-color="#FAFCFF"/>
<stop offset="1" stop-color="#E9ECF0"/>
</linearGradient>
<clipPath id="clip0_1_8">
<rect width="360" height="646" fill="white"/>
</clipPath>
</defs>
</svg>
