<svg xmlns="http://www.w3.org/2000/svg" xmlns:svg="http://www.w3.org/2000/svg" id="svg50" width="360" height="705" fill="none" version="1.1" viewBox="0 0 360 705"><rect id="rect4" width="35" height="37" x="312" y="410" fill="#58a8fa" fill-opacity=".1" clip-path="none" mask="none" rx="17.5"/><rect id="rect6" width="35" height="37" x="30" y="420" fill="#58a8fa" fill-opacity=".1" clip-path="none" mask="none" rx="17.5"/><rect id="rect8" width="35" height="37" x="173" y="286" fill="#58a8fa" fill-opacity=".1" clip-path="none" mask="none" rx="17.5"/><rect id="rect10" width="35" height="37" x="233" y="190" fill="#58a8fa" fill-opacity=".1" clip-path="none" mask="none" rx="17.5"/><rect id="rect12" width="35" height="37" x="295" y="153" fill="#58a8fa" fill-opacity=".1" clip-path="none" mask="none" rx="17.5"/><rect id="rect14" width="35" height="37" x="47" y="323" fill="#58a8fa" fill-opacity=".1" clip-path="none" mask="none" rx="17.5"/><rect id="rect16" width="35" height="37" x="106" y="218" fill="#58a8fa" fill-opacity=".1" clip-path="none" mask="none" rx="17.5"/><rect id="rect18" width="35" height="37" x="12" y="181" fill="#58a8fa" fill-opacity=".1" clip-path="none" mask="none" rx="17.5"/><rect id="rect20" width="230" height="147" x="-39" y="-83" fill="#58a8fa" fill-opacity=".1" clip-path="none" mask="none" rx="73.5"/><rect id="rect22" width="230" height="147" x="52" y="-43" fill="#58a8fa" fill-opacity=".1" clip-path="none" mask="none" rx="73.5"/><rect id="rect24" width="230" height="147" x="180" y="-83" fill="#58a8fa" fill-opacity=".1" clip-path="none" mask="none" rx="73.5"/><rect id="rect26" width="230" height="147" x="-51" y="12" fill="#58a8fa" fill-opacity=".1" clip-path="none" mask="none" rx="73.5"/><rect id="rect28" width="230" height="147" x="153" y="-24" fill="#58a8fa" fill-opacity=".1" clip-path="none" mask="none" rx="73.5"/><rect id="rect30" width="35" height="37" x="268" y="323" fill="#58a8fa" fill-opacity=".1" clip-path="none" mask="none" rx="17.5"/><rect id="rect32" width="35" height="37" x="162" y="392" fill="#58a8fa" fill-opacity=".1" clip-path="none" mask="none" rx="17.5"/><rect id="rect34" width="35" height="37" x="76" y="536" fill="#58a8fa" fill-opacity=".1" clip-path="none" mask="none" rx="17.5"/><rect id="rect36" width="35" height="37" x="224" y="470" fill="#58a8fa" fill-opacity=".1" clip-path="none" mask="none" rx="17.5"/><defs id="defs48"><linearGradient id="paint0_linear_1_8" x1="180" x2="180" y1="0" y2="646" gradientUnits="userSpaceOnUse"><stop id="stop40" stop-color="#FAFCFF"/><stop id="stop42" offset="1" stop-color="#E9ECF0"/></linearGradient></defs></svg>