<svg xmlns="http://www.w3.org/2000/svg" xmlns:svg="http://www.w3.org/2000/svg" id="svg8" width="16" height="16" version="1.1" viewBox="0 0 16 16"><g id="path417"><path style="color:#000;fill:#fff;fill-opacity:.1;stroke-width:1.12152;-inkscape-stroke:none" id="path657" d="M 3.5607573,15.002447 V 1.6990659 L 12.439241,3.6698573 V 15.002447"/><path style="color:#000;fill:#241f31;-inkscape-stroke:none" id="path659" d="M 3,1 V 15.001953 L 4,15 C 3.9596354,10.666016 3.9985149,2.1405386 4,2.3 l 8,1.5 V 15 l 1,0.002 V 3 Z"/></g><g id="path419" transform="translate(1)"><path style="color:#000;fill:#fff;fill-opacity:.1;-inkscape-stroke:none" id="path663" d="M 5.5,5 V 7"/><path style="color:#000;fill:#241f31;-inkscape-stroke:none" id="path665" d="M 5,5 V 7 H 6 V 5 Z"/></g><g id="path419-3" transform="translate(1)"><path style="color:#000;fill:#fff;fill-opacity:.1;-inkscape-stroke:none" id="path669" d="M 8.5,5 V 7"/><path style="color:#000;fill:#241f31;-inkscape-stroke:none" id="path671" d="M 8,5 V 7 H 9 V 5 Z"/></g><g id="path419-3-6" transform="translate(1)"><path style="color:#000;fill:#fff;fill-opacity:.1;-inkscape-stroke:none" id="path681" d="m 5.5,9 v 2"/><path style="color:#000;fill:#241f31;-inkscape-stroke:none" id="path683" d="m 5,9 v 2 H 6 V 9 Z"/></g><g id="path419-3-6-5" transform="translate(1)"><path style="color:#000;fill:#fff;fill-opacity:.1;-inkscape-stroke:none" id="path675" d="m 8.5,9 v 2"/><path style="color:#000;fill:#241f31;-inkscape-stroke:none" id="path677" d="m 8,9 v 2 H 9 V 9 Z"/></g></svg>