<svg width="128" height="128" viewBox="0 0 128 128" fill="none" xmlns="http://www.w3.org/2000/svg">
<g filter="url(#filter0_i_312_42)">
<rect x="12" y="12" width="104" height="104" rx="24" fill="#268EF9"/>
<rect x="12" y="12" width="104" height="104" rx="24" fill="url(#paint0_linear_312_42)"/>
</g>
<g filter="url(#filter1_i_312_42)">
<rect x="46" y="28" width="53" height="54" rx="26.5" fill="#FECB49"/>
<rect x="46" y="28" width="53" height="54" rx="26.5" fill="url(#paint1_linear_312_42)"/>
</g>
<g filter="url(#filter2_bi_312_42)">
<path fill-rule="evenodd" clip-rule="evenodd" d="M50 57C38.402 57 29 66.402 29 78C29 89.3877 38.0642 98.6584 49.3714 98.9908C49.5246 98.9969 49.6785 99 49.8332 99H49.9819C49.9879 99 49.994 99 50 99H50.6665C50.6725 99 50.6785 99 50.6846 99H81.6487C87.9179 99 93.0001 93.9178 93.0001 87.6486C93.0001 81.3795 87.9179 76.2973 81.6487 76.2973H71.5984C70.7317 65.4956 61.6912 57 50.6665 57H50Z" fill="white" fill-opacity="0.9"/>
<path fill-rule="evenodd" clip-rule="evenodd" d="M50 57C38.402 57 29 66.402 29 78C29 89.3877 38.0642 98.6584 49.3714 98.9908C49.5246 98.9969 49.6785 99 49.8332 99H49.9819C49.9879 99 49.994 99 50 99H50.6665C50.6725 99 50.6785 99 50.6846 99H81.6487C87.9179 99 93.0001 93.9178 93.0001 87.6486C93.0001 81.3795 87.9179 76.2973 81.6487 76.2973H71.5984C70.7317 65.4956 61.6912 57 50.6665 57H50Z" fill="url(#paint2_linear_312_42)"/>
</g>
<defs>
<filter id="filter0_i_312_42" x="12" y="12" width="104" height="104" filterUnits="userSpaceOnUse" color-interpolation-filters="sRGB">
<feFlood flood-opacity="0" result="BackgroundImageFix"/>
<feBlend mode="normal" in="SourceGraphic" in2="BackgroundImageFix" result="shape"/>
<feColorMatrix in="SourceAlpha" type="matrix" values="0 0 0 0 0 0 0 0 0 0 0 0 0 0 0 0 0 0 127 0" result="hardAlpha"/>
<feOffset dy="-4"/>
<feComposite in2="hardAlpha" operator="arithmetic" k2="-1" k3="1"/>
<feColorMatrix type="matrix" values="0 0 0 0 0.176471 0 0 0 0 0.176471 0 0 0 0 0.176471 0 0 0 0.1 0"/>
<feBlend mode="normal" in2="shape" result="effect1_innerShadow_312_42"/>
</filter>
<filter id="filter1_i_312_42" x="46" y="28" width="53" height="54" filterUnits="userSpaceOnUse" color-interpolation-filters="sRGB">
<feFlood flood-opacity="0" result="BackgroundImageFix"/>
<feBlend mode="normal" in="SourceGraphic" in2="BackgroundImageFix" result="shape"/>
<feColorMatrix in="SourceAlpha" type="matrix" values="0 0 0 0 0 0 0 0 0 0 0 0 0 0 0 0 0 0 127 0" result="hardAlpha"/>
<feOffset dy="-4"/>
<feComposite in2="hardAlpha" operator="arithmetic" k2="-1" k3="1"/>
<feColorMatrix type="matrix" values="0 0 0 0 0.176471 0 0 0 0 0.176471 0 0 0 0 0.176471 0 0 0 0.1 0"/>
<feBlend mode="normal" in2="shape" result="effect1_innerShadow_312_42"/>
</filter>
<filter id="filter2_bi_312_42" x="23" y="51" width="76.0001" height="54" filterUnits="userSpaceOnUse" color-interpolation-filters="sRGB">
<feFlood flood-opacity="0" result="BackgroundImageFix"/>
<feGaussianBlur in="BackgroundImageFix" stdDeviation="3"/>
<feComposite in2="SourceAlpha" operator="in" result="effect1_backgroundBlur_312_42"/>
<feBlend mode="normal" in="SourceGraphic" in2="effect1_backgroundBlur_312_42" result="shape"/>
<feColorMatrix in="SourceAlpha" type="matrix" values="0 0 0 0 0 0 0 0 0 0 0 0 0 0 0 0 0 0 127 0" result="hardAlpha"/>
<feOffset dy="-4"/>
<feComposite in2="hardAlpha" operator="arithmetic" k2="-1" k3="1"/>
<feColorMatrix type="matrix" values="0 0 0 0 0.176471 0 0 0 0 0.176471 0 0 0 0 0.176471 0 0 0 0.1 0"/>
<feBlend mode="normal" in2="shape" result="effect2_innerShadow_312_42"/>
</filter>
<linearGradient id="paint0_linear_312_42" x1="64" y1="12" x2="64" y2="116" gradientUnits="userSpaceOnUse">
<stop stop-color="#2D2D2D" stop-opacity="0"/>
<stop offset="1" stop-color="#2D2D2D" stop-opacity="0.2"/>
</linearGradient>
<linearGradient id="paint1_linear_312_42" x1="72.5" y1="28" x2="72.5" y2="82" gradientUnits="userSpaceOnUse">
<stop stop-color="#2D2D2D" stop-opacity="0"/>
<stop offset="1" stop-color="#2D2D2D" stop-opacity="0.1"/>
</linearGradient>
<linearGradient id="paint2_linear_312_42" x1="71.0741" y1="57" x2="71.0741" y2="99" gradientUnits="userSpaceOnUse">
<stop stop-color="#2D2D2D" stop-opacity="0"/>
<stop offset="1" stop-color="#2D2D2D" stop-opacity="0.2"/>
</linearGradient>
</defs>
</svg>
