<?xml version="1.0" encoding="UTF-8" standalone="no"?>
<svg
   id="svg8"
   width="16"
   height="16"
   version="1.1"
   viewBox="0 0 16 16"
   sodipodi:docname="humidity-50-symbolic.svg"
   inkscape:version="1.3 (0e150ed6c4, 2023-07-21)"
   xmlns:inkscape="http://www.inkscape.org/namespaces/inkscape"
   xmlns:sodipodi="http://sodipodi.sourceforge.net/DTD/sodipodi-0.dtd"
   xmlns="http://www.w3.org/2000/svg"
   xmlns:svg="http://www.w3.org/2000/svg">
  <defs
     id="defs1" />
  <sodipodi:namedview
     id="namedview1"
     pagecolor="#ffffff"
     bordercolor="#000000"
     borderopacity="0.25"
     inkscape:showpageshadow="2"
     inkscape:pageopacity="0.0"
     inkscape:pagecheckerboard="0"
     inkscape:deskcolor="#d1d1d1"
     showgrid="true"
     inkscape:zoom="44.8125"
     inkscape:cx="7.9888424"
     inkscape:cy="8"
     inkscape:window-width="2560"
     inkscape:window-height="921"
     inkscape:window-x="0"
     inkscape:window-y="0"
     inkscape:window-maximized="1"
     inkscape:current-layer="svg8">
    <inkscape:grid
       id="grid1"
       units="px"
       originx="0"
       originy="0"
       spacingx="1"
       spacingy="1"
       empcolor="#0099e5"
       empopacity="0.30196078"
       color="#0099e5"
       opacity="0.14901961"
       empspacing="5"
       dotted="false"
       gridanglex="30"
       gridanglez="30"
       visible="true" />
  </sodipodi:namedview>
  <path
     style="color:#000000;fill:#000000;stroke-linecap:round;stroke-linejoin:round;-inkscape-stroke:none"
     d="m 8.1386719,0.99609375 c -2.036e-4,-5.813e-5 -0.3533748,0.0292298 -0.3535157,0.0292968 -1.408e-4,6.72e-5 -0.247969,0.263479 -0.2480468,0.2636719 l 0.019531,-0.044922 c 0,0 -2.1058275,4.0309086 -4.2128906,8.0371094 -0.6387317,1.214434 -0.3067492,2.681012 0.5761719,3.796875 0.882921,1.115863 2.344142,1.934803 4.0839844,1.921875 1.735714,-0.0129 3.1932367,-0.830133 4.0761717,-1.939453 0.882935,-1.10932 1.216108,-2.566288 0.578125,-3.779297 C 11.605368,7.2794733 10.555601,5.2593849 9.7675781,3.7441406 9.3735669,2.9865185 9.0451598,2.35459 8.8125,1.9140625 8.6961701,1.6937988 8.6050543,1.5222676 8.5390625,1.4023437 8.5060666,1.3423818 8.4806098,1.2970925 8.4570313,1.2578125 8.445242,1.2381725 8.4357414,1.2215521 8.4140625,1.1914062 8.4032231,1.1763333 8.3971586,1.161307 8.34375,1.1113281 8.3303979,1.0988334 8.2854223,1.064636 8.2851563,1.0644531 8.2848902,1.0642702 8.1388754,0.99615188 8.1386719,0.99609375 Z M 8.0097656,2.5351563 C 8.2355209,2.963865 8.5203428,3.511861 8.8808594,4.2050781 9.6684419,5.7194764 10.718824,7.7428891 11.773438,9.7480469 12.18918,10.538506 11.994527,11.56097 11.296875,12.4375 10.599223,13.31403 9.4215523,13.989407 7.9960937,14 6.5747626,14.010561 5.4027438,13.338763 4.7050781,12.457031 4.0074124,11.575299 3.8135228,10.537081 4.2285156,9.7480469 6.119682,6.1523348 7.6409872,3.2403253 8.0097656,2.5351563 Z"
     id="path1" />
  <path
     style="fill:#000000;fill-opacity:0.5;stroke:none;stroke-width:0.999996;stroke-linecap:round;stroke-linejoin:round;stroke-opacity:1"
     d="m 3.595411,10 c 0,0 0.5238897,4 4.4045891,4 3.8518089,0 4.4045889,-4 4.4045889,-4 z"
     id="path2"
     sodipodi:nodetypes="cscc" />
</svg>
